<svg width="24" height="24" viewBox="0 0 24 24" fill="none" xmlns="http://www.w3.org/2000/svg">
<path d="M14 5.256C13.3465 5.08819 12.6747 5.0022 12 5C11.327 5.00098 10.6561 5.07712 10 5.227M20.098 10C20.67 11.068 21 12.24 21 13.444C21 17.89 16.97 21 12 21C7.03 21 3 18 3 13.444C3 12.193 3.288 11.034 3.792 10" stroke="black" stroke-width="2" stroke-linecap="round" stroke-linejoin="round"/>
<path d="M3.74994 9.99998C3.74994 9.99998 2.10994 3.57998 3.49994 2.99998C4.88994 2.41998 7.99994 2.99998 9.78094 4.99998" stroke="black" stroke-width="2" stroke-linecap="round" stroke-linejoin="round"/>
<path d="M20.1719 10.002C20.1719 10.002 21.8119 3.58199 20.4219 3.00199C19.0319 2.42199 15.9219 3.00199 14.1399 5.00199" stroke="black" stroke-width="2" stroke-linecap="round" stroke-linejoin="round"/>
<path d="M8 14V14.5" stroke="black" stroke-width="2" stroke-linecap="round" stroke-linejoin="round"/>
<path d="M16 14V14.5" stroke="black" stroke-width="2" stroke-linecap="round" stroke-linejoin="round"/>
<path d="M11.25 16.25H12.75L12 17L11.25 16.25Z" stroke="black" stroke-width="2" stroke-linecap="round" stroke-linejoin="round"/>
</svg>
