<svg width="24" height="24" viewBox="0 0 24 24" fill="none" xmlns="http://www.w3.org/2000/svg">
<path d="M10.8271 16.379C9.77924 16.9085 8.60053 17.1234 7.43323 16.9978C6.26593 16.8722 5.15993 16.4114 4.24873 15.6711C3.33753 14.9307 2.66009 13.9425 2.29816 12.8256C1.93623 11.7088 1.9053 10.511 2.20909 9.37697L7.62109 10.827C7.09157 9.77912 6.87664 8.60041 7.00225 7.43311C7.12787 6.2658 7.58865 5.15981 8.32898 4.24861C9.06932 3.33741 10.0576 2.65996 11.1744 2.29804C12.2913 1.93611 13.489 1.90518 14.6231 2.20897L13.1731 7.62097C14.2209 7.09144 15.3996 6.87652 16.5669 7.00213C17.7343 7.12774 18.8402 7.58853 19.7514 8.32886C20.6626 9.06919 21.3401 10.0574 21.702 11.1743C22.0639 12.2912 22.0949 13.4889 21.7911 14.623L16.3791 13.173C16.9086 14.2208 17.1235 15.3995 16.9979 16.5668C16.8723 17.7341 16.4115 18.8401 15.6712 19.7513C14.9309 20.6625 13.9426 21.34 12.8258 21.7019C11.7089 22.0638 10.5111 22.0948 9.37709 21.791L10.8271 16.379Z" stroke="black" stroke-width="2" stroke-linecap="round" stroke-linejoin="round"/>
<path d="M12 12V12.01" stroke="black" stroke-width="2" stroke-linecap="round" stroke-linejoin="round"/>
</svg>
