<svg width="24" height="24" viewBox="0 0 24 24" fill="none" xmlns="http://www.w3.org/2000/svg">
<path d="M2 22L3 21H6L15 12" stroke="black" stroke-width="2" stroke-linecap="round" stroke-linejoin="round"/>
<path d="M3 21V18L12 9" stroke="black" stroke-width="2" stroke-linecap="round" stroke-linejoin="round"/>
<path d="M15.0001 5.99996L18.4001 2.59996C18.7979 2.20213 19.3375 1.97864 19.9001 1.97864C20.4627 1.97864 21.0023 2.20213 21.4001 2.59996C21.7979 2.99778 22.0214 3.53735 22.0214 4.09996C22.0214 4.66257 21.7979 5.20213 21.4001 5.59996L18.0001 8.99996L18.4001 9.39996C18.5971 9.59694 18.7533 9.83079 18.8599 10.0882C18.9665 10.3455 19.0214 10.6214 19.0214 10.9C19.0214 11.1785 18.9665 11.4544 18.8599 11.7118C18.7533 11.9691 18.5971 12.203 18.4001 12.4C18.2031 12.5969 17.9692 12.7532 17.7119 12.8598C17.4545 12.9664 17.1787 13.0213 16.9001 13.0213C16.6215 13.0213 16.3457 12.9664 16.0883 12.8598C15.8309 12.7532 15.5971 12.5969 15.4001 12.4L11.6001 8.59996C11.4031 8.40298 11.2468 8.16912 11.1402 7.91175C11.0336 7.65438 10.9788 7.37853 10.9788 7.09996C10.9788 6.82138 11.0336 6.54553 11.1402 6.28816C11.2468 6.03079 11.4031 5.79694 11.6001 5.59996C11.7971 5.40298 12.0309 5.24672 12.2883 5.14011C12.5457 5.03351 12.8215 4.97864 13.1001 4.97864C13.3787 4.97864 13.6545 5.03351 13.9119 5.14011C14.1692 5.24672 14.4031 5.40298 14.6001 5.59996L15.0001 5.99996Z" stroke="black" stroke-width="2" stroke-linecap="round" stroke-linejoin="round"/>
</svg>
