<svg xmlns="http://www.w3.org/2000/svg" width="24" height="24" viewBox="0 0 24 24" fill="none"><g transform="scale(1.33333)"><path d="M15.5,12h-1.75v-1.75c0-.414-.336-.75-.75-.75s-.75,.336-.75,.75v1.75h-1.75c-.414,0-.75,.336-.75,.75s.336,.75,.75,.75h1.75v1.75c0,.414,.336,.75,.75,.75s.75-.336,.75-.75v-1.75h1.75c.414,0,.75-.336,.75-.75s-.336-.75-.75-.75Z" fill="#000000"></path><circle cx="5" cy="5" r="3.25" fill="#000000"></circle><circle cx="13" cy="5" r="3.25" fill="#000000"></circle><circle cx="5" cy="13" r="3.25" fill="#000000"></circle></g></svg>