<svg xmlns="http://www.w3.org/2000/svg" width="24" height="24" viewBox="0 0 24 24" fill="none"><g transform="scale(1.33333)"><path fill-rule="evenodd" clip-rule="evenodd" d="M11.1083 11.1083C11.4012 10.8154 11.876 10.8154 12.1689 11.1083L16.2803 15.2197C16.5732 15.5126 16.5732 15.9874 16.2803 16.2803C15.9874 16.5732 15.5126 16.5732 15.2197 16.2803L11.1083 12.1689C10.8154 11.876 10.8154 11.4012 11.1083 11.1083Z" fill="#000000"></path> <path fill-rule="evenodd" clip-rule="evenodd" d="M1.5 7.75C1.5 4.29829 4.29829 1.5 7.75 1.5C11.2017 1.5 14 4.29829 14 7.75C14 11.2017 11.2017 14 7.75 14C4.29829 14 1.5 11.2017 1.5 7.75ZM7.75 3C5.12671 3 3 5.12671 3 7.75C3 10.3733 5.12671 12.5 7.75 12.5C10.3733 12.5 12.5 10.3733 12.5 7.75C12.5 5.12671 10.3733 3 7.75 3Z" fill="#000000"></path></g></svg>