<svg xmlns="http://www.w3.org/2000/svg" width="24" height="24" viewBox="0 0 24 24" fill="none"><g transform="scale(1.33333)"><path fill-rule="evenodd" clip-rule="evenodd" d="M11.1083 11.1083C11.4012 10.8154 11.876 10.8154 12.1689 11.1083L16.2803 15.2197C16.5732 15.5126 16.5732 15.9874 16.2803 16.2803C15.9874 16.5732 15.5126 16.5732 15.2197 16.2803L11.1083 12.1689C10.8154 11.876 10.8154 11.4012 11.1083 11.1083Z" fill="#000000"></path> <path fill-rule="evenodd" clip-rule="evenodd" d="M1.5 7.75C1.5 4.29829 4.29829 1.5 7.75 1.5C11.2017 1.5 14 4.29829 14 7.75C14 11.2017 11.2017 14 7.75 14C4.29829 14 1.5 11.2017 1.5 7.75ZM6.5 7C6.5 7.5523 6.052 8 5.5 8C4.948 8 4.5 7.5523 4.5 7C4.5 6.4477 4.948 6 5.5 6C6.052 6 6.5 6.4477 6.5 7ZM10 8C10.552 8 11 7.5523 11 7C11 6.4477 10.552 6 10 6C9.448 6 9 6.4477 9 7C9 7.5523 9.448 8 10 8ZM8.9166 10.5833H6.58331C6.26131 10.5833 5.99991 10.322 5.99991 10C5.99991 9.034 6.78391 8.25 7.74991 8.25C8.71591 8.25 9.49991 9.034 9.49991 10C9.49991 10.322 9.2386 10.5833 8.9166 10.5833Z" fill="#000000"></path></g></svg>