<svg xmlns="http://www.w3.org/2000/svg" width="24" height="24" viewBox="0 0 24 24" fill="none"><g transform="scale(1.33333)"><circle cx="2.75" cy="9" r=".75" fill="#000000"></circle><circle cx="9" cy="2.75" r=".75" fill="#000000"></circle><circle cx="2.75" cy="2.75" r=".75" fill="#000000"></circle><circle cx="2.75" cy="5.875" r=".75" fill="#000000"></circle><circle cx="2.75" cy="12.125" r=".75" fill="#000000"></circle><circle cx="2.75" cy="15.25" r=".75" fill="#000000"></circle><circle cx="15.25" cy="2.75" r=".75" fill="#000000"></circle><circle cx="15.25" cy="5.875" r=".75" fill="#000000"></circle><circle cx="12.125" cy="2.75" r=".75" fill="#000000"></circle><circle cx="5.875" cy="2.75" r=".75" fill="#000000"></circle><circle cx="5.875" cy="15.25" r=".75" fill="#000000"></circle><path d="M16,9.25c0-.414-.336-.75-.75-.75h-6c-.414,0-.75,.336-.75,.75v6c0,.414,.336,.75,.75,.75s.75-.336,.75-.75v-4.189l4.72,4.72c.146,.146,.338,.22,.53,.22s.384-.073,.53-.22c.293-.293,.293-.768,0-1.061l-4.72-4.72h4.189c.414,0,.75-.336,.75-.75Z" fill="#000000"></path></g></svg>