<svg xmlns="http://www.w3.org/2000/svg" width="24" height="24" viewBox="0 0 24 24" fill="none"><g transform="scale(1.33333)"><path d="M14.5 14.5C13.678 14.5 12.956 14.098 12.5 13.486V17.5C12.5 17.702 12.622 17.885 12.809 17.962C12.996 18.041 13.21 17.997 13.354 17.854L14.5 16.708L15.646 17.854C15.742 17.95 15.87 18 16 18C16.064 18 16.13 17.988 16.191 17.962C16.378 17.885 16.5 17.702 16.5 17.5V13.486C16.044 14.098 15.322 14.5 14.5 14.5Z" fill="#000000"></path> <path d="M10.25 16.25H4.25C3.145 16.25 2.25 15.355 2.25 14.25V3.75C2.25 2.645 3.145 1.75 4.25 1.75H12.75C13.855 1.75 14.75 2.645 14.75 3.75V6.5" stroke="#000000" stroke-width="1.5" stroke-linecap="round" stroke-linejoin="round" fill="none"></path> <path d="M5.25 5.75H11.75" stroke="#000000" stroke-width="1.5" stroke-linecap="round" stroke-linejoin="round" fill="none"></path> <path d="M5.25 9H8.25" stroke="#000000" stroke-width="1.5" stroke-linecap="round" stroke-linejoin="round" fill="none"></path> <path d="M5.25 12.25H8.25" stroke="#000000" stroke-width="1.5" stroke-linecap="round" stroke-linejoin="round" fill="none"></path> <path d="M14.5 14.5C15.881 14.5 17 13.3807 17 12C17 10.6193 15.881 9.5 14.5 9.5C13.119 9.5 12 10.6193 12 12C12 13.3807 13.119 14.5 14.5 14.5Z" stroke="#000000" stroke-width="1.5" stroke-linecap="round" stroke-linejoin="round" fill="none"></path></g></svg>