<svg xmlns="http://www.w3.org/2000/svg" width="24" height="24" viewBox="0 0 24 24" fill="none"><g transform="scale(1.33333)"><path d="m6.75,5.75v-1.25c0-1.243,1.007-2.25,2.25-2.25h0c1.243,0,2.25,1.007,2.25,2.25v1.25" fill="none" stroke="#000000" stroke-linecap="round" stroke-linejoin="round" stroke-width="1.5"></path><line x1="9" y1="15.25" x2="9" y2="12.75" fill="none" stroke="#000000" stroke-linecap="round" stroke-linejoin="round" stroke-width="1.5"></line><path d="m5.169,12.843c-.269-.557-.419-1.182-.419-1.843v-3.25c0-1.105.895-2,2-2h4.5c.293,0,.572.063.823.177" fill="none" stroke="#000000" stroke-linecap="round" stroke-linejoin="round" stroke-width="1.5"></path><path d="m13.25,8.9922v2.0078c0,2.347-1.903,4.25-4.25,4.25h0c-.585,0-1.143-.1181-1.6504-.3324" fill="none" stroke="#000000" stroke-linecap="round" stroke-linejoin="round" stroke-width="1.5"></path><line x1="4.75" y1="9.75" x2="1.75" y2="9.75" fill="none" stroke="#000000" stroke-linecap="round" stroke-linejoin="round" stroke-width="1.5"></line><path d="m4.75,7.25c-1.519,0-2.75-1.231-2.75-2.75" fill="none" stroke="#000000" stroke-linecap="round" stroke-linejoin="round" stroke-width="1.5"></path><line x1="13.25" y1="9.75" x2="16.25" y2="9.75" fill="none" stroke="#000000" stroke-linecap="round" stroke-linejoin="round" stroke-width="1.5"></line><path d="m13.25,12.25c1.519,0,2.75,1.231,2.75,2.75" fill="none" stroke="#000000" stroke-linecap="round" stroke-linejoin="round" stroke-width="1.5"></path><line x1="2" y1="16" x2="16" y2="2" fill="none" stroke="#000000" stroke-linecap="round" stroke-linejoin="round" stroke-width="1.5"></line></g></svg>