<svg xmlns="http://www.w3.org/2000/svg" width="24" height="24" viewBox="0 0 24 24" fill="none"><g transform="scale(1.33333)"><line x1="5.75" y1="2.75" x2="5.75" y2=".75" fill="none" stroke="#000000" stroke-linecap="round" stroke-linejoin="round" stroke-width="1.5"></line><line x1="12.25" y1="2.75" x2="12.25" y2=".75" fill="none" stroke="#000000" stroke-linecap="round" stroke-linejoin="round" stroke-width="1.5"></line><rect x="2.25" y="2.75" width="13.5" height="12.5" rx="2" ry="2" fill="none" stroke="#000000" stroke-linecap="round" stroke-linejoin="round" stroke-width="1.5"></rect><line x1="2.25" y1="6.25" x2="15.75" y2="6.25" fill="none" stroke="#000000" stroke-linecap="round" stroke-linejoin="round" stroke-width="1.5"></line><path d="M9,8.25c-.551,0-1,.449-1,1s.449,1,1,1,1-.449,1-1-.449-1-1-1Z" fill="#000000"></path><path d="M12.5,10.25c.551,0,1-.449,1-1s-.449-1-1-1-1,.449-1,1,.449,1,1,1Z" fill="#000000"></path><path d="M9,11.25c-.551,0-1,.449-1,1s.449,1,1,1,1-.449,1-1-.449-1-1-1Z" fill="#000000"></path><path d="M5.5,11.25c-.551,0-1,.449-1,1s.449,1,1,1,1-.449,1-1-.449-1-1-1Z" fill="#000000"></path><path d="M12.5,11.25c-.551,0-1,.449-1,1s.449,1,1,1,1-.449,1-1-.449-1-1-1Z" fill="#000000"></path></g></svg>