<svg xmlns="http://www.w3.org/2000/svg" width="24" height="24" viewBox="0 0 24 24" fill="none"><g transform="scale(1.33333)"><path d="M9 11.25V17.25" stroke="#000000" stroke-width="1.5" stroke-linecap="round" stroke-linejoin="round" fill="none"></path> <path d="M9 15L5.75 16.75" stroke="#000000" stroke-width="1.5" stroke-linecap="round" stroke-linejoin="round" fill="none"></path> <path d="M9 15L12.25 16.75" stroke="#000000" stroke-width="1.5" stroke-linecap="round" stroke-linejoin="round" fill="none"></path> <path d="M9 11.25H13C13.552 11.25 14 10.814 14 10.25C14 9.686 13.285 8.75 11 8.75H7C4.715 8.75 4 9.678 4 10.25C4 10.814 4.448 11.25 5 11.25H9Z" stroke="#000000" stroke-width="1.5" stroke-linecap="round" stroke-linejoin="round" fill="none"></path> <path d="M15.2147 6.9556C15.326 6.6084 15.3449 6.23681 15.2461 5.88501C14.0001 1.41701 13.6861 0.765106 9.00012 0.765106C4.31412 0.765106 4.00011 1.41701 2.75311 5.88501C2.65521 6.23681 2.67412 6.60911 2.78462 6.95601" stroke="#000000" stroke-width="1.5" stroke-linecap="round" stroke-linejoin="round" fill="none"></path></g></svg>