<svg xmlns="http://www.w3.org/2000/svg" width="24" height="24" viewBox="0 0 24 24" fill="none"><g transform="scale(1.33333)"><path d="M9 16.25C13.004 16.25 16.25 13.004 16.25 9C16.25 4.996 13.004 1.75 9 1.75C4.996 1.75 1.75 4.996 1.75 9C1.75 13.004 4.996 16.25 9 16.25Z" stroke="#000000" stroke-width="1.5" stroke-linecap="round" stroke-linejoin="round" fill="none"></path> <path d="M9 12.75V9.25C9 8.9739 8.7761 8.75 8.5 8.75H7.75" stroke="#000000" stroke-width="1.5" stroke-linecap="round" stroke-linejoin="round" fill="none"></path> <path d="M9 6.75C8.448 6.75 8 6.301 8 5.75C8 5.199 8.448 4.75 9 4.75C9.552 4.75 10 5.199 10 5.75C10 6.301 9.552 6.75 9 6.75Z" fill="#000000"></path></g></svg>