<svg xmlns="http://www.w3.org/2000/svg" width="24" height="24" viewBox="0 0 24 24" fill="none"><g transform="scale(1.33333)"><path d="M14.573 3.927C14.259 3.233 13.561 2.75 12.75 2.75H11.75" stroke="#000000" stroke-width="1.5" stroke-linecap="round" stroke-linejoin="round" fill="none"></path> <path d="M6.4922 16.25H12.75C13.855 16.25 14.75 15.355 14.75 14.25V7.99219" stroke="#000000" stroke-width="1.5" stroke-linecap="round" stroke-linejoin="round" fill="none"></path> <path d="M6.25 2.75H5.25C4.145 2.75 3.25 3.645 3.25 4.75V14.25C3.25 14.543 3.313 14.822 3.427 15.073" stroke="#000000" stroke-width="1.5" stroke-linecap="round" stroke-linejoin="round" fill="none"></path> <path d="M10.75 1.25H7.25C6.6977 1.25 6.25 1.698 6.25 2.25V3.25C6.25 3.802 6.6977 4.25 7.25 4.25H10.75C11.3023 4.25 11.75 3.802 11.75 3.25V2.25C11.75 1.698 11.3023 1.25 10.75 1.25Z" stroke="#000000" stroke-width="1.5" stroke-linecap="round" stroke-linejoin="round" fill="none"></path> <path d="M2.25 16.25L16 2.5" stroke="#000000" stroke-width="1.5" stroke-linecap="round" stroke-linejoin="round" fill="none"></path></g></svg>