<svg xmlns="http://www.w3.org/2000/svg" width="24" height="24" viewBox="0 0 24 24" fill="none"><g transform="scale(1.33333)"><path d="M14.75,8c-1.91,0-3.469-1.433-3.703-3.28-.099,.01-.195,.03-.297,.03-1.618,0-2.928-1.283-2.989-2.887-3.413,.589-6.011,3.556-6.011,7.137,0,4.004,3.246,7.25,7.25,7.25s7.25-3.246,7.25-7.25c0-.434-.045-.857-.118-1.271-.428,.17-.893,.271-1.382,.271Z" fill="none" stroke="#000000" stroke-linecap="round" stroke-linejoin="round" stroke-width="1.5"></path><circle cx="12.25" cy="1.75" r=".75" fill="#000000"></circle><circle cx="14.75" cy="4.25" r=".75" fill="#000000"></circle><circle cx="11.25" cy="11.75" r=".75" fill="#000000"></circle><circle cx="7" cy="7" r="1" fill="#000000"></circle><circle cx="7.25" cy="11.25" r="1.25" fill="#000000"></circle></g></svg>