<svg xmlns="http://www.w3.org/2000/svg" width="24" height="24" viewBox="0 0 24 24" fill="none"><g transform="scale(1.33333)"><path d="M4.40401 13.596C3.22801 12.42 2.5 10.795 2.5 9C2.5 5.41 5.41 2.5 9 2.5C10.795 2.5 12.42 3.228 13.596 4.404" stroke="#000000" stroke-width="1.5" stroke-linecap="round" stroke-linejoin="round" fill="none"></path> <path d="M7.409 10.591C7.002 10.184 6.75 9.621 6.75 9C6.75 7.757 7.757 6.75 9 6.75C9.621 6.75 10.184 7.002 10.591 7.409" stroke="#000000" stroke-width="1.5" stroke-linecap="round" stroke-linejoin="round" fill="none"></path> <path d="M9 1V2.5" stroke="#000000" stroke-width="1.5" stroke-linecap="round" stroke-linejoin="round" fill="none"></path> <path d="M17 9H15.5" stroke="#000000" stroke-width="1.5" stroke-linecap="round" stroke-linejoin="round" fill="none"></path> <path d="M9 17V15.5" stroke="#000000" stroke-width="1.5" stroke-linecap="round" stroke-linejoin="round" fill="none"></path> <path d="M1 9H2.5" stroke="#000000" stroke-width="1.5" stroke-linecap="round" stroke-linejoin="round" fill="none"></path> <path d="M2 16L16 2" stroke="#000000" stroke-width="1.5" stroke-linecap="round" stroke-linejoin="round" fill="none"></path> <path d="M7.04462 15.1975C7.66202 15.3921 8.31792 15.5 9.00002 15.5C12.59 15.5 15.5 12.5898 15.5 9C15.5 8.3186 15.3927 7.6621 15.1979 7.0444" stroke="#000000" stroke-width="1.5" stroke-linecap="round" stroke-linejoin="round" fill="none"></path></g></svg>