<svg xmlns="http://www.w3.org/2000/svg" width="24" height="24" viewBox="0 0 24 24" fill="none"><g transform="scale(1.33333)"><path d="M6.25,10.75H3.25c-.552,0-1-.448-1-1V2.75c0-.552,.448-1,1-1H7.25l2,2v1" fill="none" stroke="#000000" stroke-linecap="round" stroke-linejoin="round" stroke-width="1.5"></path><polyline points="6.75 1.75 6.75 3.75 8.75 3.75" fill="none" stroke="#000000" stroke-linecap="round" stroke-linejoin="round" stroke-width="1.5"></polyline><path d="M15.75,9.25v6c0,.552-.448,1-1,1h-5c-.552,0-1-.448-1-1v-7c0-.552,.448-1,1-1h4l2,2Z" fill="none" stroke="#000000" stroke-linecap="round" stroke-linejoin="round" stroke-width="1.5"></path><polyline points="13.75 7.25 13.75 9.25 15.75 9.25" fill="none" stroke="#000000" stroke-linecap="round" stroke-linejoin="round" stroke-width="1.5"></polyline></g></svg>