<svg xmlns="http://www.w3.org/2000/svg" width="24" height="24" viewBox="0 0 24 24" fill="none"><g transform="scale(1.33333)"><path d="M9 2.75V4.75" stroke="#000000" stroke-width="1.5" stroke-linecap="round" stroke-linejoin="round" fill="none"></path> <path d="M14.127 4.87299L12.712 6.28799" stroke="#000000" stroke-width="1.5" stroke-linecap="round" stroke-linejoin="round" fill="none"></path> <path d="M16.25 10H14.25" stroke="#000000" stroke-width="1.5" stroke-linecap="round" stroke-linejoin="round" fill="none"></path> <path d="M3.87305 4.87299L8.29305 9.293" stroke="#000000" stroke-width="1.5" stroke-linecap="round" stroke-linejoin="round" fill="none"></path> <path d="M1.75 10H3.75" stroke="#000000" stroke-width="1.5" stroke-linecap="round" stroke-linejoin="round" fill="none"></path> <path d="M6.45264 3.2103C7.24504 2.9128 8.10363 2.75 9.00003 2.75C13.004 2.75 16.25 5.996 16.25 10C16.25 12.002 15.439 13.815 14.127 15.127L12.713 13.713" stroke="#000000" stroke-width="1.5" stroke-linecap="round" stroke-linejoin="round" fill="none"></path> <path d="M5.28799 13.712L3.87399 15.126C2.56199 13.814 1.75 12.002 1.75 9.99899C1.75 9.10279 1.91271 8.2445 2.21001 7.4523" stroke="#000000" stroke-width="1.5" stroke-linecap="round" stroke-linejoin="round" fill="none"></path> <path d="M9 11.25C9.69 11.25 10.25 10.69 10.25 10C10.25 9.31 9.69 8.75 9 8.75C8.31 8.75 7.75 9.31 7.75 10C7.75 10.69 8.31 11.25 9 11.25Z" fill="#000000" stroke="#000000" stroke-width="1.5" stroke-linecap="round" stroke-linejoin="round"></path></g></svg>