<svg xmlns="http://www.w3.org/2000/svg" width="24" height="24" viewBox="0 0 24 24" fill="none"><g transform="scale(1.33333)"><path d="M11.652,8.568l-3.651-2.129c-.333-.194-.752,.046-.752,.432v4.259c0,.386,.419,.626,.752,.432l3.651-2.129c.331-.193,.331-.671,0-.864Z" fill="none" stroke="#000000" stroke-linecap="round" stroke-linejoin="round" stroke-width="1.5"></path><path d="M9,1.75c4.004,0,7.25,3.246,7.25,7.25s-3.246,7.25-7.25,7.25" fill="none" stroke="#000000" stroke-linecap="round" stroke-linejoin="round" stroke-width="1.5"></path><circle cx="3.873" cy="14.127" r=".75" fill="#000000"></circle><circle cx="1.75" cy="9" r=".75" fill="#000000"></circle><circle cx="3.873" cy="3.873" r=".75" fill="#000000"></circle><circle cx="6.226" cy="15.698" r=".75" fill="#000000"></circle><circle cx="2.302" cy="11.774" r=".75" fill="#000000"></circle><circle cx="2.302" cy="6.226" r=".75" fill="#000000"></circle><circle cx="6.226" cy="2.302" r=".75" fill="#000000"></circle></g></svg>