<svg xmlns="http://www.w3.org/2000/svg" width="24" height="24" viewBox="0 0 24 24" fill="none"><g transform="scale(1.33333)"><path d="M3.43101 4.75H4.06901C4.59401 4.75 5.02901 5.15499 5.06601 5.67899L5.673 14.179C5.714 14.758 5.25601 15.25 4.67601 15.25H2.824C2.244 15.25 1.78501 14.758 1.82701 14.179L2.434 5.67899C2.471 5.15599 2.90701 4.75 3.43101 4.75Z" stroke="#000000" stroke-width="1.5" stroke-linecap="round" stroke-linejoin="round" fill="none"></path> <path d="M4 2.59799C4.306 2.08999 4.863 1.75 5.5 1.75H7.25C7.946 1.75 8.548 1.343 8.829 0.753998" stroke="#000000" stroke-width="1.5" stroke-linecap="round" stroke-linejoin="round" fill="none"></path> <path d="M8.26029 8.29431L11.25 5.75V10L16.25 5.75V14.25C16.25 14.802 15.802 15.25 15.25 15.25H4.67599" stroke="#000000" stroke-width="1.5" stroke-linecap="round" stroke-linejoin="round" fill="none"></path> <path d="M12.75 12H13.25" stroke="#000000" stroke-width="1.5" stroke-linecap="round" stroke-linejoin="round" fill="none"></path> <path d="M8.75 12H9.25" stroke="#000000" stroke-width="1.5" stroke-linecap="round" stroke-linejoin="round" fill="none"></path></g></svg>