<svg xmlns="http://www.w3.org/2000/svg" width="24" height="24" viewBox="0 0 24 24" fill="none"><g transform="scale(1.33333)"><path d="M15.75 15.75L11.6386 11.6386" stroke="#000000" stroke-width="1.5" stroke-linecap="round" stroke-linejoin="round" fill="none"></path> <path d="M7.75 13.25C10.7875 13.25 13.25 10.7875 13.25 7.75C13.25 4.7125 10.7875 2.25 7.75 2.25C4.7125 2.25 2.25 4.7125 2.25 7.75C2.25 10.7875 4.7125 13.25 7.75 13.25Z" stroke="#000000" stroke-width="1.5" stroke-linecap="round" stroke-linejoin="round" fill="none"></path> <path d="M5.5 8C6.052 8 6.5 7.5523 6.5 7C6.5 6.4477 6.052 6 5.5 6C4.948 6 4.5 6.4477 4.5 7C4.5 7.5523 4.948 8 5.5 8Z" fill="#000000"></path> <path d="M10 8C10.552 8 11 7.5523 11 7C11 6.4477 10.552 6 10 6C9.448 6 9 6.4477 9 7C9 7.5523 9.448 8 10 8Z" fill="#000000"></path> <path d="M6.58328 10.5833H8.91656C9.23856 10.5833 9.49988 10.322 9.49988 10C9.49988 9.034 8.71588 8.25 7.74988 8.25C6.78388 8.25 5.99988 9.034 5.99988 10C5.99988 10.322 6.26128 10.5833 6.58328 10.5833Z" fill="#000000"></path></g></svg>