<svg xmlns="http://www.w3.org/2000/svg" width="24" height="24" viewBox="0 0 24 24" fill="none"><g transform="scale(1.33333)"><path d="M9,1.75C4.996,1.75,1.75,4.996,1.75,9c0,1.319,.358,2.552,.973,3.617,.43,.806-.053,2.712-.973,3.633,1.25,.068,2.897-.497,3.633-.973,.489,.282,1.264,.656,2.279,.848,.433,.082,.881,.125,1.338,.125,4.004,0,7.25-3.246,7.25-7.25S13.004,1.75,9,1.75Z" fill="none" stroke="#000000" stroke-linecap="round" stroke-linejoin="round" stroke-width="1.5"></path><path d="M9,10c-.552,0-1-.449-1-1s.448-1,1-1,1,.449,1,1-.448,1-1,1Z" fill="#000000" opacity=".75"></path><path d="M5.5,10c-.552,0-1-.449-1-1s.448-1,1-1,1,.449,1,1-.448,1-1,1Z" fill="#000000"></path><path d="M12.5,10c-.552,0-1-.449-1-1s.448-1,1-1,1,.449,1,1-.448,1-1,1Z" fill="#000000" opacity=".5"></path></g></svg>