<svg xmlns="http://www.w3.org/2000/svg" width="24" height="24" viewBox="0 0 24 24" fill="none"><g transform="scale(1.33333)"><circle cx="9" cy="9" r="1.75" fill="none" stroke="#000000" stroke-linecap="round" stroke-linejoin="round" stroke-width="1.5"></circle><path d="m10.5025,16.0509c-.4686.2906-.9744.4491-1.5025.4491-2.428,0-4.397-3.358-4.397-7.5S6.572,1.5,9,1.5s4.397,3.358,4.397,7.5c0,1.384-.22,2.681-.603,3.793" fill="none" stroke="#000000" stroke-linecap="round" stroke-linejoin="round" stroke-width="1.5"></path><path d="m8.5735,4.6109c.1413-.0046.2836-.0069.4265-.0069,4.142,0,7.5,1.968,7.5,4.397s-3.358,4.397-7.5,4.397-7.5-1.97-7.5-4.398c0-1.617,1.489-3.03,3.707-3.794" fill="none" stroke="#000000" stroke-linecap="round" stroke-linejoin="round" stroke-width="1.5"></path></g></svg>