<svg xmlns="http://www.w3.org/2000/svg" width="24" height="24" viewBox="0 0 24 24" fill="none"><g transform="scale(1.33333)"><path d="M3.49402 5.25C4.46002 5.25 5.24402 4.466 5.24402 3.5C5.24402 2.534 4.46002 1.75 3.49402 1.75C2.52702 1.75 1.74402 2.534 1.74402 3.5C1.74402 4.466 2.52702 5.25 3.49402 5.25Z" stroke="#000000" stroke-width="1.5" stroke-linecap="round" stroke-linejoin="round" fill="none"></path> <path d="M2.70099 5.06L10.5 9" stroke="#000000" stroke-width="1.5" stroke-linecap="round" stroke-linejoin="round" fill="none"></path> <path d="M3.49402 11.25C4.46002 11.25 5.24402 10.466 5.24402 9.5C5.24402 8.534 4.46002 7.75 3.49402 7.75C2.52702 7.75 1.74402 8.534 1.74402 9.5C1.74402 10.466 2.52702 11.25 3.49402 11.25Z" stroke="#000000" stroke-width="1.5" stroke-linecap="round" stroke-linejoin="round" fill="none"></path> <path d="M2.70099 7.94L10.5 4" stroke="#000000" stroke-width="1.5" stroke-linecap="round" stroke-linejoin="round" fill="none"></path> <path d="M4.00488 14.209C4.34508 14.8267 4.99448 15.25 5.74998 15.25H14.25C15.355 15.25 16.25 14.355 16.25 13.25V8.25C16.25 7.145 15.355 6.25 14.25 6.25H12.4467" stroke="#000000" stroke-width="1.5" stroke-linecap="round" stroke-linejoin="round" fill="none"></path></g></svg>