<svg xmlns="http://www.w3.org/2000/svg" width="24" height="24" viewBox="0 0 24 24" fill="none"><g transform="scale(1.33333)"><path d="m4.743,2.492l-.946-.315-.316-.947c-.102-.306-.609-.306-.711,0l-.316.947-.946.315c-.153.051-.257.194-.257.356s.104.305.257.356l.946.315.316.947c.051.153.194.256.355.256s.305-.104.355-.256l.316-.947.946-.315c.153-.051.257-.194.257-.356s-.104-.305-.257-.356h.001Z" fill="#000000" ></path><polyline points="13.8297 9.3765 16.25 7.0171 11.24 6.29 9 1.75 6.76 6.29 1.75 7.0171 5.375 10.551 4.519 15.54 8.2808 13.5625" fill="none" stroke="#000000" stroke-linecap="round" stroke-linejoin="round" stroke-width="1.5"></polyline><path d="m15.158,13.49l-1.263-.421-.421-1.263c-.137-.408-.812-.408-.949,0l-.421,1.263-1.263.421c-.204.068-.342.259-.342.474s.138.406.342.474l1.263.421.421,1.263c.068.204.26.342.475.342s.406-.138.475-.342l.421-1.263,1.263-.421c.204-.068.342-.259.342-.474s-.138-.406-.342-.474h-.001Z" fill="#000000" ></path><circle cx="14.25" cy="3.25" r=".75" fill="#000000" ></circle></g></svg>