<svg xmlns="http://www.w3.org/2000/svg" width="24" height="24" viewBox="0 0 24 24" fill="none"><g transform="scale(1.33333)"><path d="M16.25 3.25L15.71 6.25C14.627 3.61 12.031 1.75 8.99998 1.75C5.06328 1.75 1.85929 4.89165 1.75269 8.79895" stroke="#000000" stroke-width="1.5" stroke-linecap="round" stroke-linejoin="round" fill="none"></path> <path d="M1.75 14.75L2.28999 11.75C3.37299 14.39 5.969 16.25 9 16.25C12.9367 16.25 16.1407 13.1083 16.2473 9.20093" stroke="#000000" stroke-width="1.5" stroke-linecap="round" stroke-linejoin="round" fill="none"></path> <path d="M10.75 6.25H8.375C7.615 6.25 7 6.87 7 7.62C7 8.38 7.615 9 8.375 9H9.625C10.384 9 11 9.62 11 10.37C11 11.13 10.384 11.75 9.625 11.75H7.25M9 5.25V6.25M9 12.75V11.75" stroke="#000000" stroke-width="1.5" stroke-linecap="round" stroke-linejoin="round" fill="none"></path></g></svg>