<svg xmlns="http://www.w3.org/2000/svg" width="24" height="24" viewBox="0 0 24 24" fill="none"><g transform="scale(1.33333)"><circle cx="6.75" cy="7.563" r=".75" fill="#000000"></circle><circle cx="6.75" cy="10.437" r=".75" fill="#000000"></circle><path d="M14.25,3.75h-6c0,.828-.672,1.5-1.5,1.5s-1.5-.672-1.5-1.5h-1.5c-1.105,0-2,.896-2,2v6.5c0,1.104,.895,2,2,2h1.5c0-.828,.672-1.5,1.5-1.5s1.5,.672,1.5,1.5h6c1.105,0,2-.896,2-2V5.75c0-1.104-.895-2-2-2Z" fill="none" stroke="#000000" stroke-linecap="round" stroke-linejoin="round" stroke-width="1.5"></path></g></svg>