<svg xmlns="http://www.w3.org/2000/svg" width="24" height="24" viewBox="0 0 24 24" fill="none"><g transform="scale(1.33333)"><path d="M8 8.25C9.7949 8.25 11.25 6.794 11.25 5C11.25 3.206 9.7949 1.75 8 1.75C6.2051 1.75 4.75 3.206 4.75 5C4.75 6.794 6.2051 8.25 8 8.25Z" stroke="#000000" stroke-width="1.5" stroke-linecap="round" stroke-linejoin="round" fill="none"></path> <path d="M1.953 14.5C3.1574 12.6813 5.15919 11.4395 7.45889 11.2699" stroke="#000000" stroke-width="1.5" stroke-linecap="round" stroke-linejoin="round" fill="none"></path> <path d="M14.925 15.75H8.75L10.618 11.55C10.698 11.3699 10.877 11.25 11.075 11.25H16.481C16.843 11.25 17.085 11.62 16.938 11.95L15.382 15.45C15.302 15.6301 15.123 15.75 14.925 15.75Z" stroke="#000000" stroke-width="1.5" stroke-linecap="round" stroke-linejoin="round" fill="none"></path> <path d="M8.75 15.75H5.75" stroke="#000000" stroke-width="1.5" stroke-linecap="round" stroke-linejoin="round" fill="none"></path></g></svg>