<svg xmlns="http://www.w3.org/2000/svg" width="24" height="24" viewBox="0 0 24 24" fill="none"><g transform="scale(1.33333)"><path d="M10.75 2.75H13.25C14.36 2.75 15.25 3.645 15.25 4.75V13.25C15.25 14.355 14.36 15.25 13.25 15.25H4.75C3.64 15.25 2.75 14.355 2.75 13.25V10.75" stroke="#000000" stroke-width="1.5" stroke-linecap="round" stroke-linejoin="round" fill="none"></path> <path d="M8.25 6.25V4.75C8.25 3.645 7.35 2.75 6.25 2.75H4.75C3.65 2.75 2.75 3.645 2.75 4.75V6.25C2.75 7.355 3.65 8.25 4.75 8.25H6.25C7.35 8.25 8.25 7.355 8.25 6.25Z" stroke="#000000" stroke-width="1.5" stroke-linecap="round" stroke-linejoin="round" fill="none"></path> <path d="M9.25 12.25H12.25V9.25" stroke="#000000" stroke-width="1.5" stroke-linecap="round" stroke-linejoin="round" fill="none"></path> <path d="M12.25 12.25L9.5 9.5" stroke="#000000" stroke-width="1.5" stroke-linecap="round" stroke-linejoin="round" fill="none"></path></g></svg>