<?xml version="1.0" encoding="UTF-8" standalone="no"?>
<!-- Created with Inkscape (http://www.inkscape.org/) -->

<svg
   width="146.88387mm"
   height="27.462345mm"
   viewBox="0 0 146.88387 27.462345"
   version="1.1"
   id="svg1"
   xml:space="preserve"
   sodipodi:docname="kamod-ui-logo.svg"
   inkscape:version="1.4.4 (dcaf3e7d9e, 2026-05-05)"
   inkscape:export-filename="kamod-logo-vertical.svg"
   inkscape:export-xdpi="96"
   inkscape:export-ydpi="96"
   xmlns:inkscape="http://www.inkscape.org/namespaces/inkscape"
   xmlns:sodipodi="http://sodipodi.sourceforge.net/DTD/sodipodi-0.dtd"
   xmlns="http://www.w3.org/2000/svg"
   xmlns:svg="http://www.w3.org/2000/svg"><sodipodi:namedview
     id="namedview1"
     pagecolor="#ffffff"
     bordercolor="#000000"
     borderopacity="0.25"
     inkscape:showpageshadow="2"
     inkscape:pageopacity="0.0"
     inkscape:pagecheckerboard="0"
     inkscape:deskcolor="#d1d1d1"
     inkscape:document-units="mm"
     inkscape:zoom="1.0066252"
     inkscape:cx="71.526123"
     inkscape:cy="326.33794"
     inkscape:window-width="1920"
     inkscape:window-height="1008"
     inkscape:window-x="0"
     inkscape:window-y="0"
     inkscape:window-maximized="1"
     inkscape:current-layer="layer1"><inkscape:page
       x="0"
       y="0"
       width="146.88387"
       height="27.462345"
       id="page2"
       margin="0"
       bleed="0" /></sodipodi:namedview><defs
     id="defs1" /><g
     inkscape:label="Ebene 1"
     inkscape:groupmode="layer"
     id="layer1"
     transform="translate(-139.41212,-47.464259)"
     style="display:inline"><g
       id="g5"
       style="display:none"
       transform="matrix(1.0247819,0,0,0.99999996,-115.44656,-79.175216)"><path
         style="display:inline;fill:#f59e1e"
         d="m 438.08232,149.70858 c -1.26337,-0.40622 -2.21577,-1.27655 -2.83459,-2.59035 -0.28586,-0.60691 -0.33514,-0.87183 -0.33627,-1.8078 -10e-4,-0.97743 0.0407,-1.18443 0.38475,-1.90375 0.51128,-1.06879 1.13694,-1.7297 2.0653,-2.18165 1.57814,-0.76829 3.16628,-0.75636 4.67222,0.0351 2.77326,1.45749 3.22555,5.47425 0.84878,7.5379 -0.83175,0.72217 -1.6641,1.00795 -3.04472,1.04539 -0.80056,0.0217 -1.41552,-0.0255 -1.75547,-0.13483 z m 2.46425,-1.70845 c 1.50308,-0.53044 2.24086,-2.0321 1.77574,-3.61428 -0.69383,-2.36017 -4.00584,-2.64171 -5.15188,-0.43793 -1.18139,2.27174 1.00051,4.89056 3.37614,4.05221 z m 8.68847,1.69534 c -1.10624,-0.40183 -2.13516,-1.36255 -2.66754,-2.49075 -0.27568,-0.5842 -0.3191,-0.84085 -0.32052,-1.89429 -0.001,-1.06901 0.0389,-1.30402 0.32861,-1.91529 1.54621,-3.26228 6.05569,-3.69813 8.12792,-0.78559 0.62931,0.8845 0.84924,1.58904 0.86212,2.76181 0.022,1.99907 -1.19573,3.67606 -3.13267,4.31429 -0.72773,0.23979 -2.54942,0.24538 -3.19792,0.01 z m 2.63751,-1.74912 c 1.37775,-0.58741 2.07221,-2.04659 1.65289,-3.47297 -0.37363,-1.27096 -1.36066,-2.02114 -2.65926,-2.02114 -1.638,0 -2.71089,1.13867 -2.71089,2.87712 0,2.06078 1.89415,3.39428 3.71726,2.61699 z m 16.89959,1.70727 c -1.30682,-0.44656 -2.11641,-1.18774 -1.90318,-1.74237 0.28443,-0.73979 0.91706,-0.81812 1.77397,-0.21964 0.48344,0.33764 0.72568,0.41886 1.37032,0.45945 1.30348,0.0821 1.96879,-0.39494 1.75049,-1.25505 -0.091,-0.35856 -0.65279,-0.66199 -1.79811,-0.9712 -2.12063,-0.57252 -2.98967,-1.50061 -2.78537,-2.97461 0.15225,-1.09843 0.92695,-1.8224 2.31167,-2.16032 0.69104,-0.16864 0.94286,-0.17622 1.69377,-0.051 0.88932,0.14834 1.86745,0.65805 2.15453,1.12274 0.18619,0.30138 -0.0447,0.84528 -0.45373,1.06888 -0.32202,0.17603 -0.37746,0.16672 -0.9831,-0.16494 -0.43591,-0.23872 -0.88063,-0.37045 -1.38609,-0.41057 -0.67439,-0.0535 -0.78148,-0.0281 -1.14086,0.27093 -0.80702,0.67152 -0.37416,1.3223 1.17246,1.76269 2.51178,0.71521 3.11661,1.27365 3.10999,2.87144 -0.008,1.92256 -2.57933,3.18201 -4.88676,2.39354 z m -46.37029,-0.13925 c -0.23974,-0.23708 -0.24645,-0.40618 -0.24645,-6.21451 0,-5.80834 0.007,-5.97744 0.24645,-6.21451 0.32389,-0.3203 0.98264,-0.31614 1.40043,0.009 l 0.32468,0.25255 v 2.55007 2.55007 h 3.14217 3.14216 v -2.50352 c 0,-2.4956 9.6e-4,-2.50448 0.30246,-2.80262 0.41306,-0.40848 1.07833,-0.40697 1.49329,0.003 l 0.30587,0.30247 -0.0342,5.92287 -0.0342,5.92287 -0.2909,0.23287 c -0.4427,0.35439 -1.16911,0.3113 -1.48688,-0.0882 -0.23938,-0.30095 -0.25539,-0.47661 -0.25539,-2.80263 v -2.48155 h -3.14216 -3.14217 v 2.53767 c 0,2.49505 -0.005,2.54213 -0.28519,2.80262 -0.37269,0.34624 -1.10042,0.35697 -1.43992,0.0213 z m 35.66723,-0.0554 -0.30245,-0.2991 v -5.65527 c 0,-5.53678 0.005,-5.66201 0.25539,-5.97634 0.32583,-0.40963 1.09289,-0.45001 1.46972,-0.0774 0.23405,0.23144 0.24644,0.40617 0.24644,3.47281 v 3.22911 h 0.40653 c 0.36482,0 0.56047,-0.16721 1.90764,-1.63038 1.02964,-1.1183 1.60481,-1.64998 1.83126,-1.69278 0.78785,-0.14894 1.47928,0.50793 1.10881,1.05338 -0.0968,0.14256 -0.73017,0.83496 -1.40742,1.53866 l -1.23138,1.27946 0.44573,0.60926 c 0.24515,0.3351 0.89448,1.21244 1.44297,1.94965 0.54848,0.73721 1.03119,1.46981 1.07268,1.62799 0.10706,0.40814 -0.38357,0.87087 -0.91957,0.86729 -0.51931,-0.003 -0.78517,-0.22647 -1.52212,-1.27675 -0.32918,-0.46913 -0.91812,-1.27261 -1.30876,-1.78551 l -0.71025,-0.93255 -0.52725,0.15361 -0.52725,0.15361 -0.0616,1.67256 c -0.0543,1.47413 -0.09,1.69304 -0.3008,1.84515 -0.38088,0.27483 -1.02243,0.21552 -1.3683,-0.1265 z m -189.57181,-5.4401 c -6.72451,-0.36927 -12.54542,-1.80353 -15.25468,-3.75872 -1.10603,-0.79819 -1.53484,-2.01086 -1.06055,-2.99924 0.6944,-1.44708 3.3627,-2.61924 6.76551,-2.97202 1.29964,-0.13474 1.40363,-0.12775 2.52605,0.16985 2.44001,0.64694 6.36339,1.16436 8.82883,1.16436 1.30941,0 1.49422,0.0308 2.60542,0.43405 2.63774,0.95726 5.08611,2.38451 5.97178,3.48119 0.7355,0.91074 0.7118,1.9296 -0.0627,2.6955 -1.00066,0.98955 -3.01662,1.58043 -6.10909,1.7906 -1.03892,0.0706 -2.00929,0.12032 -2.15639,0.11046 -0.1471,-0.01 -1.07147,-0.0621 -2.05417,-0.11603 z m -3.1944,-9.86924 c -4.04747,-0.6145 -6.91562,-1.78266 -7.87978,-3.20935 -1.09024,-1.61324 0.34359,-3.44958 3.14622,-4.02946 1.39964,-0.28959 2.39025,-0.33868 3.80639,-0.18866 4.03254,0.42722 7.88536,1.96585 9.67992,3.86571 1.68197,1.78066 0.71951,3.25585 -2.40456,3.68554 -1.48089,0.20368 -4.59074,0.14305 -6.34819,-0.12378 z"
         id="path8" /><path
         style="display:inline;fill:#9aa8b7"
         d="m 263.90724,154.17567 c 0.76244,-0.0214 2.01006,-0.0214 2.7725,0 0.76244,0.0214 0.13863,0.0389 -1.38625,0.0389 -1.52487,0 -2.14869,-0.0175 -1.38625,-0.0389 z m -3.07835,-0.1192 c 0.22148,-0.0271 0.55418,-0.0266 0.73934,0.001 0.18516,0.0278 0.004,0.05 -0.40268,0.0493 -0.40664,-6.9e-4 -0.55813,-0.0234 -0.33666,-0.0506 z m 8.06885,0.001 c 0.18638,-0.0279 0.49135,-0.0279 0.67773,0 0.18637,0.0279 0.0339,0.0508 -0.33887,0.0508 -0.37274,0 -0.52523,-0.0228 -0.33886,-0.0508 z m -9.54972,-0.12057 c 0.15249,-0.029 0.40201,-0.029 0.5545,0 0.15249,0.029 0.0277,0.0528 -0.27725,0.0528 -0.30498,0 -0.42974,-0.0238 -0.27725,-0.0528 z m 11.09144,-1.9e-4 c 0.15328,-0.0291 0.37508,-0.028 0.49289,0.002 0.11781,0.0305 -0.008,0.0543 -0.27869,0.053 -0.27109,-0.001 -0.36748,-0.0263 -0.2142,-0.0555 z m -12.199,-0.12185 c 0.15327,-0.0291 0.37507,-0.028 0.49288,0.002 0.11782,0.0305 -0.008,0.0543 -0.27868,0.053 -0.27109,-10e-4 -0.36748,-0.0263 -0.2142,-0.0555 z m 13.43122,0 c 0.15328,-0.0291 0.37508,-0.028 0.49289,0.002 0.11781,0.0305 -0.008,0.0543 -0.27869,0.053 -0.27109,-10e-4 -0.36748,-0.0263 -0.2142,-0.0555 z m -14.35448,-0.12012 c 0.11989,-0.0309 0.28624,-0.0289 0.36966,0.005 0.0834,0.0334 -0.0147,0.0587 -0.21798,0.0562 -0.20332,-0.002 -0.27157,-0.0298 -0.15168,-0.0607 z m 15.27721,4.5e-4 c 0.1186,-0.0307 0.31268,-0.0307 0.43128,0 0.1186,0.0306 0.0216,0.0557 -0.21564,0.0557 -0.2372,0 -0.33424,-0.0251 -0.21564,-0.0557 z m -16.13977,-0.1223 c 0.11989,-0.0309 0.28624,-0.0289 0.36967,0.005 0.0834,0.0334 -0.0147,0.0587 -0.21799,0.0562 -0.20331,-0.002 -0.27157,-0.0298 -0.15168,-0.0607 z m 16.94071,0.004 c 0.0847,-0.0338 0.22334,-0.0338 0.30806,0 0.0847,0.0338 0.0154,0.0615 -0.15403,0.0615 -0.16943,0 -0.23874,-0.0277 -0.15403,-0.0615 z m -17.95964,-0.163 c -0.24393,-0.0773 -0.25675,-0.0976 -0.0616,-0.0976 0.13555,0 0.38507,0.0439 0.5545,0.0976 0.24393,0.0772 0.25676,0.0976 0.0616,0.0976 -0.13554,0 -0.38507,-0.0439 -0.5545,-0.0976 z m 18.69898,0.0412 c 0.0847,-0.0338 0.22334,-0.0338 0.30805,0 0.0847,0.0338 0.0154,0.0615 -0.15402,0.0615 -0.16943,0 -0.23875,-0.0277 -0.15403,-0.0615 z m 0.61611,-0.12186 c 0.0847,-0.0338 0.22334,-0.0338 0.30805,0 0.0847,0.0338 0.0154,0.0615 -0.15402,0.0615 -0.16943,0 -0.23875,-0.0277 -0.15403,-0.0615 z m -19.9543,-0.12439 c 0.0889,-0.0352 0.19523,-0.0309 0.23617,0.01 0.041,0.0405 -0.0318,0.0693 -0.16173,0.064 -0.14354,-0.006 -0.17274,-0.0347 -0.0744,-0.0736 z m 20.57811,0 c 0.0889,-0.0352 0.19523,-0.0309 0.23618,0.01 0.0409,0.0405 -0.0318,0.0693 -0.16173,0.064 -0.14355,-0.006 -0.17275,-0.0347 -0.0744,-0.0736 z m -21.071,-0.12185 c 0.089,-0.0352 0.19523,-0.0309 0.23617,0.01 0.0409,0.0405 -0.0318,0.0693 -0.16172,0.064 -0.14355,-0.006 -0.17275,-0.0347 -0.0745,-0.0736 z m 21.56389,0 c 0.089,-0.0352 0.19523,-0.0309 0.23618,0.01 0.0409,0.0405 -0.0318,0.0693 -0.16173,0.064 -0.14355,-0.006 -0.17275,-0.0347 -0.0745,-0.0736 z m -22.05678,-0.12185 c 0.0889,-0.0352 0.19523,-0.0309 0.23618,0.01 0.0409,0.0405 -0.0318,0.0693 -0.16173,0.064 -0.14355,-0.006 -0.17275,-0.0347 -0.0744,-0.0736 z m 22.54967,0 c 0.089,-0.0352 0.19523,-0.0309 0.23618,0.01 0.0409,0.0405 -0.0318,0.0693 -0.16173,0.064 -0.14355,-0.006 -0.17275,-0.0347 -0.0745,-0.0736 z m -23.51234,-0.28232 c -0.10166,-0.065 -0.12939,-0.11812 -0.0616,-0.11812 0.0678,0 0.20639,0.0532 0.30805,0.11812 0.10166,0.065 0.12938,0.11812 0.0616,0.11812 -0.0678,0 -0.2064,-0.0532 -0.30805,-0.11812 z m 24.45961,0 c 0.33875,-0.14395 0.5333,-0.14395 0.30806,0 -0.10166,0.065 -0.26801,0.1151 -0.36967,0.11142 -0.12187,-0.004 -0.10089,-0.0424 0.0616,-0.11142 z m -25.07572,-0.24371 c -0.10166,-0.065 -0.12939,-0.11812 -0.0616,-0.11812 0.0678,0 0.2064,0.0532 0.30806,0.11812 0.10166,0.065 0.12938,0.11812 0.0616,0.11812 -0.0678,0 -0.2064,-0.0532 -0.30805,-0.11812 z m 26.24633,-0.18278 c 0.16943,-0.0958 0.36351,-0.17414 0.43128,-0.17414 0.0678,0 -0.0154,0.0784 -0.18483,0.17414 -0.16943,0.0958 -0.36351,0.17414 -0.43128,0.17414 -0.0678,0 0.0154,-0.0784 0.18483,-0.17414 z m 38.78746,-0.0284 c 0.28982,-0.0257 0.73342,-0.0254 0.98578,8e-4 0.25235,0.0262 0.0152,0.0472 -0.52696,0.0468 -0.54217,-4.4e-4 -0.74864,-0.0219 -0.45882,-0.0476 z m 47.49891,-1.9e-4 c 0.32192,-0.0251 0.8487,-0.0251 1.17062,0 0.32191,0.0251 0.0585,0.0456 -0.58531,0.0456 -0.64384,0 -0.90722,-0.0205 -0.58531,-0.0456 z m 18.97623,0 c 0.32192,-0.0251 0.84869,-0.0251 1.17061,0 0.32192,0.0251 0.0585,0.0456 -0.58531,0.0456 -0.64383,0 -0.90722,-0.0205 -0.5853,-0.0456 z m -67.5874,-0.11299 c 0.0847,-0.0338 0.22334,-0.0338 0.30806,0 0.0847,0.0338 0.0154,0.0615 -0.15403,0.0615 -0.16943,0 -0.23874,-0.0277 -0.15403,-0.0615 z m 2.84181,-0.003 c 0.089,-0.0352 0.19523,-0.0309 0.23618,0.01 0.0409,0.0405 -0.0318,0.0693 -0.16173,0.064 -0.14355,-0.006 -0.17274,-0.0347 -0.0745,-0.0736 z m 44.72198,0.003 c 0.0847,-0.0338 0.22334,-0.0338 0.30805,0 0.0847,0.0338 0.0154,0.0615 -0.15403,0.0615 -0.16943,0 -0.23874,-0.0277 -0.15402,-0.0615 z m 3.08055,0 c 0.0847,-0.0338 0.22334,-0.0338 0.30806,0 0.0847,0.0338 0.0154,0.0615 -0.15403,0.0615 -0.16943,0 -0.23874,-0.0277 -0.15403,-0.0615 z m 15.89567,0 c 0.0847,-0.0338 0.22334,-0.0338 0.30806,0 0.0847,0.0338 0.0154,0.0615 -0.15403,0.0615 -0.16943,0 -0.23875,-0.0277 -0.15403,-0.0615 z m 3.08056,0 c 0.0847,-0.0338 0.22334,-0.0338 0.30805,0 0.0847,0.0338 0.0154,0.0615 -0.15403,0.0615 -0.16943,0 -0.23874,-0.0277 -0.15402,-0.0615 z m -90.13473,-0.12559 c 0.11989,-0.0309 0.28624,-0.0289 0.36967,0.005 0.0834,0.0334 -0.0147,0.0587 -0.21798,0.0562 -0.20332,-0.002 -0.27158,-0.0298 -0.15169,-0.0607 z m 10.58858,-0.0312 c 0.31851,-0.0584 0.65121,-0.14653 0.73933,-0.19591 0.12335,-0.0691 0.12724,-0.0545 0.0169,0.0637 -0.0788,0.0844 -0.41152,0.17259 -0.73933,0.19591 l -0.59602,0.0424 z m 9.44039,0.0324 c 0.089,-0.0352 0.19523,-0.0309 0.23618,0.01 0.041,0.0405 -0.0318,0.0693 -0.16173,0.064 -0.14355,-0.006 -0.17274,-0.0347 -0.0745,-0.0736 z m 3.81989,0 c 0.0889,-0.0352 0.19523,-0.0309 0.23618,0.01 0.0409,0.0405 -0.0318,0.0693 -0.16173,0.064 -0.14355,-0.006 -0.17275,-0.0347 -0.0744,-0.0736 z m 4.48991,-7.6e-4 c 0.1186,-0.0306 0.31268,-0.0306 0.43128,0 0.1186,0.0306 0.0216,0.0557 -0.21564,0.0557 -0.2372,0 -0.33424,-0.0251 -0.21564,-0.0557 z m 7.2085,0.003 c 0.0847,-0.0338 0.22334,-0.0338 0.30806,0 0.0847,0.0338 0.0154,0.0615 -0.15403,0.0615 -0.16943,0 -0.23874,-0.0277 -0.15403,-0.0615 z m 10.41463,-0.004 c 0.11989,-0.0309 0.28624,-0.0289 0.36967,0.005 0.0834,0.0334 -0.0147,0.0587 -0.21799,0.0562 -0.20332,-0.002 -0.27157,-0.0298 -0.15168,-0.0607 z m 10.13268,-0.0431 c -0.17176,-0.077 -0.0971,-0.0879 0.24645,-0.0362 0.27109,0.0408 0.51599,0.0944 0.54423,0.11898 0.10587,0.0923 -0.55413,0.0232 -0.79068,-0.0828 z m 11.49818,0.0443 c 0.0889,-0.0352 0.19523,-0.0309 0.23617,0.01 0.041,0.0405 -0.0318,0.0693 -0.16173,0.064 -0.14354,-0.006 -0.17274,-0.0347 -0.0744,-0.0736 z m 4.18955,0 c 0.089,-0.0352 0.19523,-0.0309 0.23618,0.01 0.041,0.0405 -0.0318,0.0693 -0.16173,0.064 -0.14355,-0.006 -0.17274,-0.0347 -0.0744,-0.0736 z m 14.25528,-0.0951 c -0.48599,-0.22005 -0.37608,-0.22387 0.30805,-0.0107 0.30498,0.095 0.4436,0.17397 0.30806,0.17543 -0.13555,0.001 -0.4128,-0.0727 -0.61611,-0.16473 z m 4.72095,0.0951 c 0.089,-0.0352 0.19523,-0.0309 0.23617,0.01 0.0409,0.0405 -0.0318,0.0693 -0.16172,0.064 -0.14355,-0.006 -0.17275,-0.0347 -0.0745,-0.0736 z m -107.05702,-0.091 c 0,-0.0335 0.1109,-0.11962 0.24644,-0.19136 0.13555,-0.0717 0.24645,-0.10301 0.24645,-0.0695 0,0.0335 -0.1109,0.11962 -0.24645,0.19135 -0.13554,0.0717 -0.24644,0.10302 -0.24644,0.0695 z m 16.88144,0.006 c 0,-0.0257 0.11098,-0.0754 0.24662,-0.11049 0.13564,-0.0351 0.21554,-0.014 0.17756,0.0467 -0.0663,0.10612 -0.42418,0.15992 -0.42418,0.0638 z m 9.05771,-0.0737 c -0.0432,-0.0691 0.006,-0.0895 0.11595,-0.0479 0.21347,0.081 0.25253,0.16835 0.0753,0.16835 -0.0638,0 -0.14982,-0.0542 -0.19123,-0.12046 z m 17.91081,-0.13048 -0.2909,-0.25094 0.36967,0.21406 c 0.48653,0.28173 0.49377,0.28782 0.34224,0.28782 -0.0716,0 -0.26101,-0.11292 -0.42101,-0.25094 z m 1.68065,0.10832 c 0.13555,-0.0744 0.33234,-0.19607 0.43732,-0.27046 0.10498,-0.0744 0.0603,-0.0119 -0.0993,0.13891 -0.15958,0.15079 -0.35638,0.2725 -0.43731,0.27046 -0.0809,-0.002 -0.0363,-0.0645 0.0993,-0.13891 z m 7.14689,0 c 0.13555,-0.0744 0.33234,-0.19607 0.43732,-0.27046 0.10498,-0.0744 0.0603,-0.0119 -0.0993,0.13891 -0.15958,0.15079 -0.35638,0.2725 -0.43731,0.27046 -0.0809,-0.002 -0.0363,-0.0645 0.0993,-0.13891 z m 8.9961,0.0222 c -0.0432,-0.0691 0.006,-0.0895 0.11595,-0.0479 0.21347,0.081 0.25253,0.16835 0.0753,0.16835 -0.0638,0 -0.14982,-0.0542 -0.19123,-0.12046 z m 1.16974,0.0737 c 0,-0.0257 0.11098,-0.0754 0.24661,-0.11049 0.13564,-0.0351 0.21554,-0.014 0.17756,0.0467 -0.0663,0.10612 -0.42417,0.15992 -0.42417,0.0638 z m -47.57311,-0.41023 -0.29873,-0.3351 0.33886,0.29541 c 0.18637,0.16248 0.33886,0.31327 0.33886,0.3351 0,0.0956 -0.0998,0.0178 -0.37899,-0.29541 z m 20.09455,0.21324 c -0.10166,-0.065 -0.12938,-0.11812 -0.0616,-0.11812 0.0678,0 0.2064,0.0532 0.30805,0.11812 0.10166,0.065 0.12939,0.11812 0.0616,0.11812 -0.0678,0 -0.2064,-0.0531 -0.30806,-0.11812 z m 36.40046,-0.15231 -0.23473,-0.27417 0.27725,0.23212 c 0.26054,0.21815 0.33334,0.31621 0.23473,0.31621 -0.0234,0 -0.14814,-0.12337 -0.27725,-0.27416 z m 11.16332,0.15231 c -0.10165,-0.065 -0.12938,-0.11812 -0.0616,-0.11812 0.0678,0 0.2064,0.0532 0.30806,0.11812 0.10166,0.065 0.12938,0.11812 0.0616,0.11812 -0.0678,0 -0.2064,-0.0531 -0.30806,-0.11812 z m 25.01412,0 c 0.10166,-0.065 0.24028,-0.11812 0.30805,-0.11812 0.0678,0 0.0401,0.0532 -0.0616,0.11812 -0.10166,0.065 -0.24028,0.11812 -0.30805,0.11812 -0.0678,0 -0.0401,-0.0531 0.0616,-0.11812 z m -44.48323,-0.046 c 0,-0.0253 0.097,-0.12127 0.21564,-0.21325 0.19544,-0.15157 0.1998,-0.14726 0.0465,0.046 -0.16097,0.20298 -0.26216,0.26752 -0.26216,0.16724 z m 25.76372,5e-5 c 0.12603,-0.11279 1.09873,-0.56193 1.09873,-0.50734 0,0.0693 -0.92994,0.55329 -1.06302,0.55329 -0.0479,0 -0.064,-0.0207 -0.0357,-0.046 z m 12.12799,-0.19636 c -0.0432,-0.0691 0.006,-0.0895 0.11595,-0.0479 0.21347,0.081 0.25253,0.16835 0.0753,0.16835 -0.0638,0 -0.14982,-0.0542 -0.19123,-0.12046 z m -19.23079,-0.1909 c -0.22969,-0.18197 -0.22818,-0.18422 0.0381,-0.0566 0.15248,0.0731 0.27725,0.15835 0.27725,0.18951 0,0.0932 -0.0639,0.0663 -0.31531,-0.13287 z m -80.76493,-0.35883 c 0.22991,-0.23457 0.44574,-0.42649 0.47962,-0.42649 0.0339,0 -0.12649,0.19192 -0.3564,0.42649 -0.2299,0.23456 -0.44573,0.42648 -0.47962,0.42648 -0.0339,0 0.1265,-0.19192 0.3564,-0.42648 z m 23.59126,-0.0914 -0.48709,-0.51788 0.5237,0.48168 c 0.28803,0.26492 0.52369,0.49797 0.52369,0.51788 0,0.0922 -0.10731,-6e-5 -0.5603,-0.48168 z m 3.22693,0.39602 c 0.0535,-0.10053 0.13382,-0.40212 0.17854,-0.67019 l 0.0813,-0.48742 0.0154,0.43366 c 0.008,0.23852 -0.0719,0.5401 -0.17855,0.6702 -0.10668,0.13009 -0.15021,0.15428 -0.0967,0.0538 z m 80.75483,0.084 c 0,-0.0284 0.23566,-0.20532 0.52369,-0.39317 0.28803,-0.18785 0.45865,-0.26368 0.37914,-0.16851 -0.15288,0.183 -0.90283,0.64957 -0.90283,0.56168 z m -138.69243,-0.60189 -0.48709,-0.51787 0.52369,0.48168 c 0.48703,0.44795 0.58032,0.55407 0.48709,0.55407 -0.0201,0 -0.25579,-0.23304 -0.52369,-0.51788 z m 63.75615,0.26694 -0.2909,-0.25094 0.33886,0.20403 c 0.18637,0.11221 0.33886,0.22514 0.33886,0.25094 0,0.0952 -0.10295,0.0408 -0.38682,-0.20403 z m 19.45315,-0.003 c 0.0436,-0.16478 0.0994,-0.22001 0.13019,-0.12875 0.0296,0.0879 -0.005,0.21777 -0.0763,0.28858 -0.0914,0.0904 -0.10748,0.0429 -0.0539,-0.15983 z m -10.06138,-0.0613 c 0.006,-0.14195 0.0351,-0.17082 0.0745,-0.0736 0.0356,0.088 0.0312,0.19306 -0.01,0.23355 -0.0409,0.0405 -0.0701,-0.0315 -0.0647,-0.15993 z m -0.87228,0.0329 c 0,-0.021 0.18021,-0.19918 0.40047,-0.39602 l 0.40047,-0.35789 -0.36191,0.39602 c -0.33736,0.36915 -0.43903,0.45203 -0.43903,0.35789 z m 21.4504,-0.1548 c 0.006,-0.14195 0.0351,-0.17083 0.0744,-0.0736 0.0356,0.088 0.0312,0.19306 -0.01,0.23355 -0.041,0.0405 -0.0701,-0.0315 -0.0647,-0.15993 z m 7.39333,0 c 0.006,-0.14195 0.0351,-0.17083 0.0745,-0.0736 0.0356,0.088 0.0312,0.19306 -0.01,0.23355 -0.0409,0.0405 -0.0701,-0.0315 -0.0647,-0.15993 z m 28.93178,-0.0203 c -0.15327,-0.19327 -0.14891,-0.19758 0.0465,-0.046 0.20525,0.15919 0.27053,0.25925 0.16911,0.25925 -0.0256,0 -0.12262,-0.096 -0.21564,-0.21324 z m -82.26912,-1.93076 c -0.0269,-2.02665 -0.0201,-2.08937 0.24963,-2.31521 0.27632,-0.23135 0.27654,-0.23129 0.0647,0.0178 -0.1793,0.21082 -0.21835,0.57307 -0.24964,2.31521 l -0.0371,2.06529 z m 28.36799,-1.51159 c 0,-1.97707 0.017,-2.78587 0.0377,-1.79733 0.0207,0.98853 0.0207,2.60613 0,3.59466 -0.0207,0.98854 -0.0377,0.17974 -0.0377,-1.79733 z m 4.19069,-0.79205 c -4e-5,-2.41269 0.0164,-3.41697 0.0366,-2.23173 0.0202,1.18524 0.0202,3.15926 7e-5,4.38671 -0.0201,1.22746 -0.0366,0.25772 -0.0366,-2.15498 z m 30.611,4.11255 c -0.15328,-0.19327 -0.14892,-0.19758 0.0465,-0.046 0.20526,0.15919 0.27053,0.25925 0.16911,0.25925 -0.0256,0 -0.12262,-0.096 -0.21563,-0.21324 z m 9.81188,-0.0305 c 0.12267,-0.13403 0.25075,-0.2437 0.28464,-0.2437 0.0339,0 -0.0387,0.10967 -0.16142,0.2437 -0.12266,0.13404 -0.25075,0.24371 -0.28464,0.24371 -0.0339,0 0.0387,-0.10967 0.16142,-0.24371 z m -57.73894,-0.21324 -0.29873,-0.3351 0.33886,0.29541 c 0.18637,0.16248 0.33886,0.31327 0.33886,0.3351 0,0.0956 -0.0998,0.0178 -0.37899,-0.29541 z m 27.63056,0.0914 c 0,-0.16755 0.028,-0.23609 0.0621,-0.15232 0.0342,0.0838 0.0342,0.22086 0,0.30464 -0.0342,0.0838 -0.0621,0.0152 -0.0621,-0.15232 z m 13.59005,-3.65559 c 0,-2.17813 0.0167,-3.06918 0.0371,-1.98012 0.0204,1.08907 0.0204,2.87117 0,3.96023 -0.0204,1.08906 -0.0371,0.19801 -0.0371,-1.98011 z m 25.07564,3.32049 -0.42464,-0.45694 0.46208,0.41992 c 0.4301,0.39086 0.51874,0.49397 0.42465,0.49397 -0.0206,0 -0.22853,-0.20562 -0.46209,-0.45695 z m 10.85019,0.0305 c 0.15918,-0.16755 0.31713,-0.30464 0.35102,-0.30464 0.0339,0 -0.0686,0.13709 -0.22779,0.30464 -0.15918,0.16755 -0.31713,0.30463 -0.35102,0.30463 -0.0339,0 0.0686,-0.13708 0.22779,-0.30463 z m -108.48926,0.0252 c 0.0463,-0.12018 0.11518,-0.18781 0.15312,-0.15029 0.0379,0.0375 8e-5,0.13584 -0.0841,0.2185 -0.12169,0.11945 -0.13585,0.10545 -0.069,-0.0682 z m 78.53693,-0.17753 -0.29873,-0.33509 0.33886,0.29541 c 0.18638,0.16247 0.33887,0.31326 0.33887,0.33509 0,0.0956 -0.0998,0.0178 -0.379,-0.29541 z m 11.09933,0.16724 c 0,-0.0253 0.097,-0.12126 0.21564,-0.21325 0.19544,-0.15156 0.1998,-0.14725 0.0465,0.046 -0.16097,0.20298 -0.26216,0.26753 -0.26216,0.16724 z m -89.42827,-0.74604 c 10e-4,-0.26808 0.0266,-0.3634 0.0561,-0.21182 0.0295,0.15157 0.0283,0.37091 -0.002,0.48741 -0.0308,0.1165 -0.055,-0.008 -0.0536,-0.27559 z m 21.64671,0.0914 -0.29873,-0.3351 0.33887,0.29541 c 0.31671,0.27611 0.39536,0.37478 0.29872,0.37478 -0.0221,0 -0.17456,-0.15079 -0.33886,-0.33509 z m 8.62556,0 -0.29873,-0.3351 0.33886,0.29541 c 0.31672,0.27611 0.39537,0.37478 0.29873,0.37478 -0.0221,0 -0.17456,-0.15079 -0.33886,-0.33509 z m -4.74053,-0.42649 -0.48709,-0.51787 0.5237,0.48168 c 0.28803,0.26492 0.52369,0.49796 0.52369,0.51787 0,0.0922 -0.10731,-6e-5 -0.5603,-0.48168 z m 64.57425,0.27417 c 0.12267,-0.13404 0.25076,-0.2437 0.28464,-0.2437 0.0339,0 -0.0387,0.10966 -0.16141,0.2437 -0.12267,0.13404 -0.25076,0.24371 -0.28464,0.24371 -0.0339,0 0.0387,-0.10967 0.16141,-0.24371 z m 18.66817,0.1977 c 0,-0.0253 0.097,-0.12126 0.21564,-0.21324 0.19544,-0.15157 0.1998,-0.14726 0.0465,0.046 -0.16097,0.20297 -0.26216,0.26752 -0.26216,0.16723 z m -31.06772,-0.28909 c -0.15327,-0.19326 -0.14891,-0.19757 0.0465,-0.046 0.20526,0.15918 0.27054,0.25925 0.16912,0.25925 -0.0256,0 -0.12263,-0.096 -0.21564,-0.21325 z m 18.97623,0 c -0.15328,-0.19326 -0.14892,-0.19757 0.0465,-0.046 0.20526,0.15918 0.27053,0.25925 0.16911,0.25925 -0.0256,0 -0.12262,-0.096 -0.21563,-0.21325 z m -129.4714,-0.15231 c 0,-0.16755 0.028,-0.23609 0.0622,-0.15232 0.0342,0.0838 0.0342,0.22086 0,0.30463 -0.0342,0.0838 -0.0622,0.0152 -0.0622,-0.15231 z m 68.83317,0.15539 c 0.22148,-0.0271 0.55418,-0.0266 0.73934,0.001 0.18516,0.0278 0.004,0.05 -0.40268,0.0493 -0.40664,-6.8e-4 -0.55813,-0.0234 -0.33666,-0.0505 z m 47.62489,8.7e-4 c 0.1873,-0.028 0.46455,-0.0273 0.61611,0.002 0.15155,0.0289 -0.002,0.0518 -0.34056,0.0509 -0.33886,-9.1e-4 -0.46286,-0.0246 -0.27555,-0.0526 z m 18.97453,1.6e-4 c 0.18637,-0.0279 0.49134,-0.0279 0.67772,0 0.18637,0.0279 0.0339,0.0508 -0.33886,0.0508 -0.37275,0 -0.52524,-0.0229 -0.33886,-0.0508 z m -67.46418,-0.11527 c 0.0847,-0.0338 0.22334,-0.0338 0.30806,0 0.0847,0.0338 0.0154,0.0615 -0.15403,0.0615 -0.16943,0 -0.23875,-0.0277 -0.15403,-0.0615 z m 2.24881,-0.0412 c 0.42131,-0.13343 0.74527,-0.13343 0.43127,0 -0.13554,0.0576 -0.35734,0.10311 -0.49288,0.10114 -0.19812,-0.003 -0.18604,-0.0227 0.0616,-0.10114 z m 45.4459,0.0386 c 0.089,-0.0352 0.19523,-0.0309 0.23617,0.01 0.041,0.0405 -0.0318,0.0693 -0.16173,0.064 -0.14354,-0.006 -0.17274,-0.0347 -0.0744,-0.0736 z m 2.30271,-0.097 c 0.33886,-0.0901 0.63281,-0.14755 0.65321,-0.12772 0.068,0.0661 -0.74773,0.30807 -1.01046,0.29972 -0.14237,-0.005 0.0184,-0.0819 0.35725,-0.172 z m 16.66581,0.0995 c 0.0847,-0.0338 0.22334,-0.0338 0.30806,0 0.0847,0.0338 0.0154,0.0615 -0.15403,0.0615 -0.16943,0 -0.23874,-0.0277 -0.15403,-0.0615 z m 2.36712,-0.10494 c 0.30227,-0.0931 0.56849,-0.15063 0.59159,-0.12779 0.063,0.0623 -0.71711,0.31465 -0.94393,0.30528 -0.10849,-0.004 0.0501,-0.0844 0.35234,-0.17749 z m -3.07565,-0.0581 c -0.22524,-0.14394 -0.0307,-0.14394 0.30806,0 0.1625,0.0691 0.18348,0.10701 0.0616,0.11143 -0.10166,0.004 -0.26801,-0.0465 -0.36967,-0.11143 z m -67.28602,-0.34972 c -0.3013,-0.19234 -0.74164,-0.56247 -0.97854,-0.8225 l -0.43071,-0.47279 0.55394,0.50993 c 0.30466,0.28047 0.80346,0.64994 1.10844,0.82104 0.30497,0.17111 0.49604,0.31177 0.42459,0.31258 -0.0714,8e-4 -0.37642,-0.15591 -0.67772,-0.34826 z M 281.20694,148.57 c -0.13446,-0.31073 -0.13142,-0.31789 0.0418,-0.0986 0.10276,0.13009 0.18684,0.28089 0.18684,0.3351 0,0.1852 -0.0836,0.0987 -0.22867,-0.23654 z m 81.70937,0.0927 c -0.22026,-0.1328 -0.40047,-0.26783 -0.40047,-0.30007 0,-0.0322 0.19407,0.0546 0.43128,0.19303 0.2372,0.13839 0.43127,0.27363 0.43127,0.30052 0,0.0779 -0.0389,0.0616 -0.46208,-0.19348 z m -42.54248,-0.0874 c 0.16943,-0.1202 0.55758,-0.43574 0.86256,-0.7012 l 0.5545,-0.48265 -0.45988,0.48555 c -0.25293,0.26705 -0.64108,0.58259 -0.86255,0.7012 -0.38899,0.20832 -0.3922,0.20822 -0.0946,-0.003 z m 61.34752,-0.043 -0.2909,-0.25094 0.33886,0.20403 c 0.18638,0.11221 0.33886,0.22513 0.33886,0.25093 0,0.0951 -0.10295,0.0408 -0.38682,-0.20402 z m -79.71696,-0.20601 -0.29873,-0.3351 0.33886,0.29541 c 0.18638,0.16248 0.33887,0.31327 0.33887,0.3351 0,0.0956 -0.0998,0.0178 -0.379,-0.29541 z m 38.26056,-2.34567 c 0,-1.44092 0.0178,-2.03038 0.0396,-1.30993 0.0218,0.72046 0.0218,1.89939 0,2.61985 -0.0218,0.72045 -0.0396,0.13099 -0.0396,-1.30992 z m 46.77211,2.5129 c 0,-0.0253 0.097,-0.12126 0.21564,-0.21324 0.19544,-0.15157 0.1998,-0.14726 0.0465,0.046 -0.16098,0.20297 -0.26217,0.26752 -0.26217,0.16723 z m -18.36011,-0.50233 c 0.22991,-0.23457 0.44574,-0.42648 0.47962,-0.42648 0.0339,0 -0.12649,0.19191 -0.3564,0.42648 -0.2299,0.23457 -0.44573,0.42649 -0.47962,0.42649 -0.0339,0 0.12649,-0.19192 0.3564,-0.42649 z m -6.6041,0.0305 -0.23473,-0.27416 0.27725,0.23212 c 0.26054,0.21815 0.33334,0.31621 0.23473,0.31621 -0.0234,0 -0.14814,-0.12337 -0.27725,-0.27417 z m 18.97623,0 -0.23474,-0.27416 0.27725,0.23212 c 0.26055,0.21815 0.33335,0.31621 0.23474,0.31621 -0.0234,0 -0.14815,-0.12337 -0.27725,-0.27417 z m -132.38086,-0.0406 c 0.006,-0.14195 0.0351,-0.17083 0.0744,-0.0736 0.0356,0.088 0.0312,0.19306 -0.01,0.23355 -0.041,0.0405 -0.0701,-0.0315 -0.0647,-0.15993 z m 31.95869,-0.20309 -0.36192,-0.39602 0.40048,0.35789 c 0.22026,0.19684 0.40047,0.37505 0.40047,0.39602 0,0.0941 -0.10168,0.0113 -0.43903,-0.35789 z m 30.06891,0.26606 c -0.0447,-0.0715 -0.0548,-0.15609 -0.0225,-0.18803 0.0323,-0.0319 0.0916,0.0265 0.13169,0.12996 0.0833,0.21471 0.0123,0.25248 -0.1092,0.0581 z m -5.29929,-0.63162 -0.48709,-0.51788 0.5237,0.48168 c 0.48703,0.44796 0.58031,0.55407 0.48709,0.55407 -0.0201,0 -0.2558,-0.23304 -0.5237,-0.51787 z m 67.22731,0.3351 c 0,-0.067 0.0538,-0.20411 0.11944,-0.30464 0.0657,-0.10053 0.11945,-0.12794 0.11945,-0.0609 0,0.067 -0.0537,0.2041 -0.11945,0.30463 -0.0657,0.10053 -0.11944,0.12794 -0.11944,0.0609 z m 7.98995,-0.27417 c -0.15327,-0.19327 -0.14891,-0.19758 0.0465,-0.046 0.20526,0.15918 0.27054,0.25925 0.16912,0.25925 -0.0256,0 -0.12263,-0.096 -0.21564,-0.21324 z m 7.28583,0.16723 c 0,-0.0253 0.097,-0.12126 0.21564,-0.21324 0.19544,-0.15157 0.19979,-0.14726 0.0465,0.046 -0.16097,0.20297 -0.26216,0.26752 -0.26216,0.16723 z m -86.94104,-0.47187 -0.36192,-0.39602 0.40048,0.35789 c 0.22026,0.19685 0.40047,0.37506 0.40047,0.39603 0,0.0941 -0.10168,0.0112 -0.43903,-0.3579 z m 79.23458,-0.3432 c -0.0447,-0.0715 -0.0548,-0.15609 -0.0225,-0.18804 0.0323,-0.0319 0.0916,0.0265 0.13169,0.12997 0.0833,0.21471 0.0123,0.25248 -0.1092,0.0581 z m 8.33246,-0.11375 c 0.17964,-0.37299 0.23656,-0.44212 0.23656,-0.2873 0,0.0654 -0.0862,0.22531 -0.19164,0.3554 -0.18069,0.22303 -0.18325,0.21914 -0.0449,-0.0681 z m -110.04735,-0.30463 c -0.44052,-0.22806 -0.75777,-0.41732 -0.70501,-0.42057 0.13098,-0.008 1.56757,0.71398 1.56757,0.78788 0,0.0819 0.0289,0.0942 -0.86256,-0.36731 z m 94.52119,0.23355 c 0.006,-0.14195 0.0351,-0.17082 0.0744,-0.0736 0.0356,0.088 0.0312,0.19306 -0.01,0.23356 -0.041,0.0405 -0.0701,-0.0315 -0.0647,-0.15994 z m -62.84334,-0.12185 c 0.006,-0.14195 0.0351,-0.17083 0.0744,-0.0736 0.0356,0.088 0.0312,0.19306 -0.01,0.23355 -0.0409,0.0405 -0.0701,-0.0315 -0.0647,-0.15993 z m -60.32702,-0.53818 c 0.33377,-0.3351 0.63457,-0.60927 0.66846,-0.60927 0.0339,0 -0.21147,0.27417 -0.54524,0.60927 -0.33376,0.33509 -0.63457,0.60926 -0.66845,0.60926 -0.0339,0 0.21147,-0.27417 0.54523,-0.60926 z m 50.20374,0.15231 -0.29873,-0.33509 0.33886,0.29541 c 0.31672,0.2761 0.39537,0.37478 0.29873,0.37478 -0.0221,0 -0.17456,-0.1508 -0.33886,-0.3351 z m 4.00629,-0.18278 -0.36191,-0.39602 0.40047,0.35789 c 0.22026,0.19684 0.40047,0.37505 0.40047,0.39603 0,0.0941 -0.10167,0.0112 -0.43903,-0.3579 z m 69.08355,0.20309 c 0.006,-0.14195 0.0351,-0.17083 0.0745,-0.0736 0.0356,0.088 0.0312,0.19306 -0.01,0.23355 -0.041,0.0405 -0.0701,-0.0315 -0.0647,-0.15993 z m -75.05207,0.0251 c 0,-0.0253 0.097,-0.12127 0.21564,-0.21325 0.19543,-0.15157 0.19979,-0.14726 0.0465,0.046 -0.16097,0.20297 -0.26216,0.26752 -0.26216,0.16724 z m 59.64929,-0.14693 c 0.006,-0.14195 0.0351,-0.17083 0.0745,-0.0736 0.0356,0.088 0.0312,0.19306 -0.01,0.23355 -0.041,0.0405 -0.0701,-0.0315 -0.0647,-0.15993 z m -47.67728,-0.17263 c 0,-0.16755 0.028,-0.23609 0.0621,-0.15231 0.0342,0.0838 0.0342,0.22085 0,0.30463 -0.0342,0.0838 -0.0621,0.0152 -0.0621,-0.15232 z m 66.6678,-0.0609 c 0.003,-0.20106 0.0301,-0.26856 0.0614,-0.15 0.0312,0.11856 0.0292,0.28306 -0.005,0.36556 -0.0337,0.0825 -0.0593,-0.0145 -0.0568,-0.21556 z m 15.28412,-0.0609 c 0,-0.23457 0.0254,-0.33053 0.0564,-0.21324 0.031,0.11728 0.031,0.3092 0,0.42648 -0.031,0.11729 -0.0564,0.0213 -0.0564,-0.21324 z m -114.74849,0.12185 c -0.10166,-0.065 -0.12938,-0.11812 -0.0616,-0.11812 0.0678,0 0.2064,0.0532 0.30805,0.11812 0.10166,0.065 0.12939,0.11812 0.0616,0.11812 -0.0678,0 -0.2064,-0.0531 -0.30806,-0.11812 z m 21.31745,-0.046 c 0,-0.0253 0.097,-0.12127 0.21564,-0.21325 0.19543,-0.15157 0.19979,-0.14726 0.0465,0.046 -0.16097,0.20298 -0.26216,0.26752 -0.26216,0.16724 z m 23.91484,-0.14693 c 0.006,-0.14195 0.0351,-0.17083 0.0745,-0.0736 0.0356,0.088 0.0312,0.19306 -0.01,0.23355 -0.041,0.0405 -0.0701,-0.0315 -0.0647,-0.15993 z m 47.56378,0 c 0.006,-0.14195 0.0351,-0.17083 0.0745,-0.0736 0.0356,0.088 0.0312,0.19306 -0.01,0.23355 -0.0409,0.0405 -0.0701,-0.0315 -0.0647,-0.15993 z m 18.86273,-0.0508 c 0,-0.16755 0.028,-0.23609 0.0622,-0.15232 0.0342,0.0838 0.0342,0.22086 0,0.30463 -0.0342,0.0838 -0.0622,0.0152 -0.0622,-0.15231 z m -75.7914,-0.0711 c 0.006,-0.14195 0.0351,-0.17082 0.0745,-0.0736 0.0356,0.088 0.0312,0.19306 -0.01,0.23355 -0.041,0.0405 -0.0701,-0.0315 -0.0647,-0.15994 z m 66.66323,0 c 0.006,-0.14195 0.0351,-0.17082 0.0745,-0.0736 0.0356,0.088 0.0312,0.19306 -0.01,0.23355 -0.041,0.0405 -0.0701,-0.0315 -0.0647,-0.15994 z m -6.49609,-1.02559 c 0,-0.63668 0.0208,-0.89715 0.0462,-0.5788 0.0254,0.31834 0.0254,0.83926 0,1.1576 -0.0254,0.31834 -0.0462,0.0579 -0.0462,-0.5788 z m -15.6499,-0.0609 c -3.8e-4,-0.60317 0.0205,-0.86529 0.0463,-0.58248 0.0258,0.28281 0.0262,0.77632 6.8e-4,1.09668 -0.0255,0.32036 -0.0466,0.089 -0.047,-0.5142 z m 3.06084,0.73112 c 0.003,-0.20106 0.0301,-0.26856 0.0614,-0.15 0.0312,0.11856 0.0292,0.28306 -0.005,0.36556 -0.0337,0.0825 -0.0593,-0.0145 -0.0568,-0.21556 z m -50.7534,-0.48741 c 6.9e-4,-0.40212 0.0237,-0.55193 0.0511,-0.33292 0.0274,0.21902 0.0268,0.54802 -0.001,0.73112 -0.0281,0.1831 -0.0506,0.004 -0.0499,-0.3982 z m 12.69513,-0.18278 c 0,-0.50265 0.0217,-0.70827 0.0483,-0.45695 0.0266,0.25132 0.0266,0.66257 0,0.9139 -0.0266,0.25132 -0.0483,0.0457 -0.0483,-0.45695 z m 47.56279,0.0609 c 5.5e-4,-0.46913 0.0228,-0.64612 0.0495,-0.3933 0.0267,0.25282 0.0262,0.63665 -9.9e-4,0.85297 -0.0272,0.21632 -0.0491,0.009 -0.0485,-0.45967 z m -99.26514,0.57941 c 0.62689,-0.0221 1.65272,-0.0221 2.27961,0 0.62689,0.0221 0.11398,0.0402 -1.1398,0.0402 -1.25379,0 -1.7667,-0.0181 -1.13981,-0.0402 z m 108.74806,-0.45755 c 9.3e-4,-0.3351 0.0249,-0.45772 0.0532,-0.2725 0.0283,0.18523 0.0276,0.4594 -0.002,0.60927 -0.0293,0.14987 -0.0524,-0.002 -0.0515,-0.33677 z m -128.67926,0.37413 c 0,-0.0335 0.1109,-0.11962 0.24645,-0.19135 0.13554,-0.0717 0.24644,-0.10301 0.24644,-0.0695 0,0.0335 -0.1109,0.11961 -0.24644,0.19135 -0.13555,0.0717 -0.24645,0.10301 -0.24645,0.0695 z m 16.72742,-0.0358 c 0.22026,-0.027 0.58069,-0.027 0.80095,0 0.22026,0.027 0.04,0.0491 -0.40048,0.0491 -0.44052,0 -0.62073,-0.0221 -0.40047,-0.0491 z m 45.28693,-0.39927 c 0,-0.30159 0.024,-0.42496 0.0534,-0.27417 0.0294,0.15079 0.0294,0.39755 0,0.54834 -0.0294,0.15079 -0.0534,0.0274 -0.0534,-0.27417 z m 63.58436,-0.0609 c 9.2e-4,-0.33509 0.0249,-0.45771 0.0532,-0.27249 0.0283,0.18522 0.0276,0.45939 -0.002,0.60927 -0.0292,0.14987 -0.0524,-0.002 -0.0515,-0.33678 z m 12.44544,0 c 9.3e-4,-0.33509 0.0249,-0.45771 0.0532,-0.27249 0.0283,0.18522 0.0276,0.45939 -0.002,0.60927 -0.0293,0.14987 -0.0524,-0.002 -0.0515,-0.33678 z m -122.73378,0.34249 c 0.1186,-0.0306 0.31267,-0.0306 0.43127,0 0.11861,0.0307 0.0216,0.0557 -0.21564,0.0557 -0.2372,0 -0.33424,-0.0251 -0.21563,-0.0557 z m 36.25351,-0.55573 -0.61148,-0.63973 0.64692,0.60469 c 0.60112,0.56188 0.70342,0.67477 0.61147,0.67477 -0.0195,0 -0.3106,-0.28788 -0.64691,-0.63973 z m -37.36017,0.43343 c 0.11989,-0.0309 0.28624,-0.0289 0.36967,0.005 0.0834,0.0334 -0.0147,0.0587 -0.21799,0.0562 -0.20331,-0.002 -0.27157,-0.0298 -0.15168,-0.0607 z m -0.98578,-0.12185 c 0.11989,-0.0309 0.28624,-0.0289 0.36967,0.005 0.0834,0.0334 -0.0147,0.0587 -0.21798,0.0562 -0.20332,-0.002 -0.27158,-0.0298 -0.15169,-0.0607 z m -0.92651,-0.11811 c 0.0847,-0.0338 0.22334,-0.0338 0.30806,0 0.0847,0.0338 0.0154,0.0615 -0.15403,0.0615 -0.16943,0 -0.23874,-0.0277 -0.15403,-0.0615 z m -0.73933,-0.12185 c 0.0847,-0.0338 0.22334,-0.0338 0.30805,0 0.0847,0.0338 0.0154,0.0615 -0.15402,0.0615 -0.16944,0 -0.23875,-0.0277 -0.15403,-0.0615 z m -0.73163,-0.12439 c 0.0889,-0.0352 0.19523,-0.0309 0.23617,0.01 0.041,0.0405 -0.0318,0.0693 -0.16173,0.064 -0.14354,-0.006 -0.17274,-0.0347 -0.0744,-0.0736 z m -0.61612,-0.12186 c 0.089,-0.0352 0.19523,-0.0309 0.23618,0.01 0.041,0.0405 -0.0318,0.0693 -0.16173,0.064 -0.14355,-0.006 -0.17274,-0.0347 -0.0745,-0.0736 z m 99.48748,-0.22139 c 0.003,-0.20106 0.0301,-0.26856 0.0614,-0.15 0.0312,0.11856 0.0292,0.28306 -0.005,0.36556 -0.0337,0.0825 -0.0593,-0.0145 -0.0568,-0.21556 z m -100.10359,0.0995 c 0.089,-0.0352 0.19523,-0.0309 0.23618,0.01 0.0409,0.0405 -0.0318,0.0693 -0.16173,0.064 -0.14355,-0.006 -0.17275,-0.0347 -0.0745,-0.0736 z m -0.61611,-0.12185 c 0.089,-0.0352 0.19523,-0.0309 0.23618,0.01 0.0409,0.0405 -0.0318,0.0693 -0.16173,0.064 -0.14355,-0.006 -0.17275,-0.0347 -0.0745,-0.0736 z m 53.15135,-0.16047 c 0,-0.16755 0.028,-0.23609 0.0622,-0.15232 0.0342,0.0838 0.0342,0.22086 0,0.30464 -0.0342,0.0838 -0.0622,0.0152 -0.0622,-0.15232 z m -53.76746,0.0386 c 0.0889,-0.0352 0.19523,-0.0309 0.23618,0.01 0.0409,0.0405 -0.0318,0.0693 -0.16173,0.064 -0.14355,-0.006 -0.17275,-0.0347 -0.0744,-0.0736 z m -0.49289,-0.12185 c 0.089,-0.0352 0.19523,-0.0309 0.23618,0.01 0.0409,0.0405 -0.0318,0.0693 -0.16173,0.064 -0.14355,-0.006 -0.17275,-0.0347 -0.0745,-0.0736 z m 117.84759,-0.22139 c 0.003,-0.20106 0.0301,-0.26856 0.0614,-0.15 0.0312,0.11856 0.0292,0.28306 -0.005,0.36556 -0.0337,0.0825 -0.0593,-0.0145 -0.0568,-0.21556 z m 3.06626,0.11169 c 0.006,-0.14195 0.0351,-0.17082 0.0745,-0.0736 0.0356,0.088 0.0312,0.19306 -0.01,0.23355 -0.041,0.0405 -0.0701,-0.0315 -0.0647,-0.15994 z m -125.1034,-0.0122 c 0.0889,-0.0352 0.19523,-0.0309 0.23617,0.01 0.041,0.0405 -0.0318,0.0693 -0.16173,0.064 -0.14354,-0.006 -0.17274,-0.0347 -0.0744,-0.0736 z m 55.36934,-0.16047 c 0,-0.16755 0.028,-0.23609 0.0621,-0.15232 0.0342,0.0838 0.0342,0.22086 0,0.30464 -0.0342,0.0838 -0.0621,0.0152 -0.0621,-0.15232 z m -54.88416,0.0412 c 0.0847,-0.0338 0.22334,-0.0338 0.30806,0 0.0847,0.0338 0.0154,0.0615 -0.15403,0.0615 -0.16943,0 -0.23874,-0.0276 -0.15403,-0.0615 z m 70.41016,-0.163 c 0,-0.16755 0.028,-0.23609 0.0621,-0.15232 0.0342,0.0838 0.0342,0.22086 0,0.30463 -0.0342,0.0838 -0.0621,0.0152 -0.0621,-0.15231 z m 44.4723,0.12185 c -0.006,-0.10053 -0.14646,-0.47066 -0.31212,-0.82251 -0.16565,-0.35185 -0.27294,-0.63973 -0.23842,-0.63973 0.12248,0 0.68373,1.34593 0.6231,1.49425 -0.0415,0.1015 -0.0652,0.091 -0.0726,-0.032 z m -113.95594,-0.0844 c 0.11989,-0.0309 0.28624,-0.0289 0.36966,0.005 0.0834,0.0334 -0.0147,0.0587 -0.21798,0.0562 -0.20332,-0.002 -0.27158,-0.0298 -0.15168,-0.0607 z M 301.8905,143.132 c 0,-0.0253 0.097,-0.12127 0.21564,-0.21325 0.19543,-0.15157 0.19979,-0.14726 0.0465,0.046 -0.16097,0.20298 -0.26216,0.26753 -0.26216,0.16724 z m 48.6968,-0.25863 c 0.003,-0.20106 0.0301,-0.26856 0.0614,-0.15 0.0312,0.11856 0.0292,0.28306 -0.005,0.36556 -0.0338,0.0825 -0.0593,-0.0145 -0.0568,-0.21556 z m 22.54511,0.0609 c 0,-0.16755 0.028,-0.23609 0.0622,-0.15232 0.0342,0.0838 0.0342,0.22086 0,0.30463 -0.0342,0.0838 -0.0622,0.0152 -0.0622,-0.15231 z m -40.17045,-0.12186 c 0,-0.16754 0.028,-0.23609 0.0622,-0.15231 0.0342,0.0838 0.0342,0.22086 0,0.30463 -0.0342,0.0838 -0.0622,0.0152 -0.0622,-0.15232 z m 43.85739,-0.0711 c 0.006,-0.14195 0.0351,-0.17082 0.0744,-0.0736 0.0356,0.088 0.0312,0.19306 -0.01,0.23356 -0.041,0.0405 -0.0701,-0.0315 -0.0647,-0.15994 z m -79.43158,-5.10767 c 3e-5,-2.88183 0.0162,-4.04334 0.0358,-2.58114 0.0197,1.4622 0.0196,3.82006 -6e-5,5.23969 -0.0197,1.41962 -0.0358,0.22327 -0.0358,-2.65855 z m 4.99562,5.13275 c 0,-0.0253 0.097,-0.12127 0.21564,-0.21325 0.19543,-0.15156 0.19979,-0.14725 0.0465,0.046 -0.16098,0.20298 -0.26216,0.26753 -0.26216,0.16724 z m 41.04273,-0.14693 c 0.006,-0.14195 0.0351,-0.17083 0.0744,-0.0736 0.0356,0.088 0.0312,0.19306 -0.01,0.23355 -0.041,0.0405 -0.0701,-0.0315 -0.0647,-0.15993 z m 10.24174,-0.23355 c 0.003,-0.20106 0.0301,-0.26856 0.0614,-0.15 0.0312,0.11856 0.0292,0.28306 -0.005,0.36556 -0.0337,0.0825 -0.0593,-0.0145 -0.0568,-0.21556 z m -55.8437,0.13677 c 0,-0.0253 0.097,-0.12126 0.21564,-0.21324 0.19544,-0.15157 0.1998,-0.14726 0.0465,0.046 -0.16098,0.20298 -0.26217,0.26753 -0.26217,0.16724 z m 52.47102,-0.56888 c -0.11357,-0.26499 -0.1843,-0.48179 -0.15719,-0.48179 0.0904,0 0.44085,0.74598 0.40197,0.85561 -0.0211,0.0594 -0.13121,-0.10884 -0.24478,-0.37382 z m 26.64739,0.3001 c 0.006,-0.14195 0.0351,-0.17083 0.0745,-0.0736 0.0356,0.088 0.0312,0.19306 -0.01,0.23355 -0.041,0.0405 -0.0701,-0.0315 -0.0647,-0.15993 z m -78.44068,-0.29448 c 0.12266,-0.13404 0.25075,-0.2437 0.28464,-0.2437 0.0339,0 -0.0388,0.10966 -0.16142,0.2437 -0.12267,0.13404 -0.25076,0.24371 -0.28464,0.24371 -0.0339,0 0.0387,-0.10967 0.16142,-0.24371 z m 34.68706,0.007 c 0,-0.0631 0.0548,-0.14816 0.12181,-0.1891 0.0698,-0.0427 0.0905,0.006 0.0484,0.11466 -0.0819,0.2111 -0.17023,0.24972 -0.17023,0.0744 z m -29.69656,-0.0532 c 0,-0.0253 0.097,-0.12127 0.21564,-0.21325 0.19543,-0.15157 0.19979,-0.14726 0.0465,0.046 -0.16098,0.20298 -0.26216,0.26753 -0.26216,0.16724 z m 40.17045,-0.0687 c 0,-0.0631 0.0548,-0.14816 0.12181,-0.18911 0.0698,-0.0427 0.0905,0.006 0.0484,0.11466 -0.0819,0.2111 -0.17023,0.24973 -0.17023,0.0744 z m 9.8675,-0.0783 c 0.006,-0.14195 0.0351,-0.17083 0.0744,-0.0736 0.0356,0.088 0.0312,0.19306 -0.01,0.23355 -0.0409,0.0405 -0.0701,-0.0315 -0.0647,-0.15993 z m 15.62378,-0.14216 c -0.15327,-0.19327 -0.14891,-0.19758 0.0465,-0.046 0.20525,0.15919 0.27053,0.25925 0.16911,0.25925 -0.0256,0 -0.12262,-0.096 -0.21564,-0.21324 z m 3.54278,0.0257 c -0.11891,-0.30642 -0.0838,-0.38549 0.0614,-0.13847 0.0719,0.12231 0.10481,0.24805 0.0731,0.27943 -0.0317,0.0314 -0.0923,-0.0321 -0.13451,-0.14096 z m 7.80939,0.14148 c 0,-0.0253 0.097,-0.12126 0.21563,-0.21324 0.19544,-0.15157 0.1998,-0.14726 0.0465,0.046 -0.16098,0.20297 -0.26216,0.26752 -0.26216,0.16723 z m -66.10874,-0.56326 c 0.26472,-0.26807 0.50902,-0.48741 0.54291,-0.48741 0.0339,0 -0.15497,0.21934 -0.41968,0.48741 -0.26471,0.26808 -0.50902,0.48742 -0.54291,0.48742 -0.0339,0 0.15497,-0.21934 0.41968,-0.48742 z m -15.34116,0.31956 c 0,-0.0253 0.097,-0.12127 0.21563,-0.21325 0.19544,-0.15157 0.1998,-0.14726 0.0465,0.046 -0.16098,0.20298 -0.26216,0.26753 -0.26216,0.16724 z m 4.92889,0 c 0,-0.0253 0.097,-0.12127 0.21563,-0.21325 0.19544,-0.15157 0.1998,-0.14726 0.0465,0.046 -0.16098,0.20298 -0.26216,0.26753 -0.26216,0.16724 z m 20.84233,-0.41095 c -0.13446,-0.31073 -0.13142,-0.31789 0.0418,-0.0986 0.10276,0.13009 0.18684,0.28089 0.18684,0.3351 0,0.1852 -0.0836,0.0987 -0.22867,-0.23654 z m 37.13373,0.0914 c 0.12266,-0.13403 0.25075,-0.2437 0.28464,-0.2437 0.0339,0 -0.0387,0.10967 -0.16142,0.2437 -0.12267,0.13404 -0.25075,0.24371 -0.28464,0.24371 -0.0339,0 0.0387,-0.10967 0.16142,-0.24371 z m -28.03306,-0.30463 c 0.22991,-0.23457 0.44574,-0.42649 0.47962,-0.42649 0.0339,0 -0.12649,0.19192 -0.3564,0.42649 -0.2299,0.23457 -0.44573,0.42649 -0.47962,0.42649 -0.0339,0 0.12649,-0.19192 0.3564,-0.42649 z m 15.64259,-0.0305 -0.42464,-0.45695 0.46208,0.41992 c 0.4301,0.39086 0.51874,0.49398 0.42464,0.49398 -0.0206,0 -0.22853,-0.20563 -0.46208,-0.45695 z m -49.89837,0.16723 c 0,-0.0253 0.097,-0.12126 0.21564,-0.21324 0.19543,-0.15157 0.19979,-0.14726 0.0465,0.046 -0.16097,0.20297 -0.26216,0.26752 -0.26216,0.16723 z m 53.38007,-0.505 c -0.14745,-0.30012 -0.24221,-0.54567 -0.21058,-0.54567 0.0835,0 0.58137,0.98976 0.52563,1.04489 -0.0258,0.0255 -0.16761,-0.19911 -0.31505,-0.49922 z m 15.30462,0.27684 -0.23474,-0.27417 0.27725,0.23213 c 0.26055,0.21814 0.33335,0.31621 0.23474,0.31621 -0.0234,0 -0.14815,-0.12338 -0.27725,-0.27417 z m 3.60834,-0.53958 c -0.25342,-0.38054 -0.3594,-0.60118 -0.23551,-0.4903 0.21196,0.18968 0.83275,1.1822 0.73944,1.1822 -0.0237,0 -0.2505,-0.31136 -0.50393,-0.6919 z m -66.87125,0.40218 c 0,-0.0253 0.097,-0.12126 0.21563,-0.21324 0.19544,-0.15157 0.1998,-0.14726 0.0465,0.046 -0.16098,0.20297 -0.26216,0.26752 -0.26216,0.16723 z m 6.03421,-0.19091 c 0.0705,-0.1303 0.18913,-0.27414 0.26356,-0.31963 0.0744,-0.0455 0.04,0.0611 -0.0764,0.23692 -0.24665,0.37224 -0.37437,0.4287 -0.18712,0.0827 z m 33.52012,0.19091 c 0,-0.0253 0.097,-0.12126 0.21564,-0.21324 0.19544,-0.15157 0.1998,-0.14726 0.0465,0.046 -0.16098,0.20297 -0.26217,0.26752 -0.26217,0.16723 z m -44.36,-0.12185 c 0,-0.0253 0.097,-0.12126 0.21564,-0.21324 0.19543,-0.15157 0.19979,-0.14726 0.0465,0.046 -0.16097,0.20298 -0.26216,0.26753 -0.26216,0.16724 z m 15.2467,-0.21282 c 0.0836,-0.0833 0.18301,-0.12072 0.22095,-0.0832 0.0379,0.0375 -0.0304,0.10565 -0.15197,0.15141 -0.17562,0.0661 -0.18977,0.0521 -0.069,-0.0682 z m -9.94815,-0.0309 c 0,-0.0253 0.097,-0.12127 0.21564,-0.21325 0.19544,-0.15157 0.1998,-0.14726 0.0465,0.046 -0.16098,0.20298 -0.26217,0.26752 -0.26217,0.16724 z m -4.80566,-0.12186 c 0,-0.0253 0.097,-0.12126 0.21564,-0.21324 0.19543,-0.15157 0.19979,-0.14726 0.0465,0.046 -0.16097,0.20297 -0.26216,0.26752 -0.26216,0.16723 z m 23.27328,-0.28909 c -0.15327,-0.19326 -0.14891,-0.19757 0.0465,-0.046 0.1186,0.092 0.21563,0.18794 0.21563,0.21324 0,0.10029 -0.10118,0.0357 -0.26216,-0.16724 z m 35.01084,0.0454 c 0,-0.0253 0.097,-0.12127 0.21563,-0.21325 0.19544,-0.15157 0.1998,-0.14726 0.0465,0.046 -0.16098,0.20298 -0.26216,0.26753 -0.26216,0.16724 z m 32.94176,-0.80697 c 0,-0.50264 0.0217,-0.70827 0.0483,-0.45695 0.0266,0.25132 0.0266,0.66258 0,0.9139 -0.0266,0.25132 -0.0483,0.0457 -0.0483,-0.45695 z m -74.49846,0.64297 c 0.22026,-0.027 0.58068,-0.027 0.80094,0 0.22026,0.027 0.0401,0.0491 -0.40047,0.0491 -0.44052,0 -0.62073,-0.0221 -0.40047,-0.0491 z m 18.79308,7.1e-4 c 0.18731,-0.028 0.46456,-0.0273 0.61611,0.002 0.15156,0.0289 -0.002,0.0518 -0.34055,0.0509 -0.33886,-9.2e-4 -0.46286,-0.0246 -0.27556,-0.0526 z m 10.47389,0 c 0.18731,-0.028 0.46456,-0.0273 0.61611,0.002 0.15156,0.0289 -0.002,0.0518 -0.34055,0.0509 -0.33886,-9.2e-4 -0.46286,-0.0246 -0.27556,-0.0526 z m 18.29681,-7.1e-4 c 0.22026,-0.027 0.58068,-0.027 0.80094,0 0.22026,0.027 0.04,0.0491 -0.40047,0.0491 -0.44052,0 -0.62073,-0.0221 -0.40047,-0.0491 z m 13.2772,-0.15556 c 0.12266,-0.13404 0.25075,-0.2437 0.28464,-0.2437 0.0339,0 -0.0388,0.10966 -0.16142,0.2437 -0.12267,0.13404 -0.25076,0.24371 -0.28464,0.24371 -0.0339,0 0.0387,-0.10967 0.16142,-0.24371 z m 5.70123,0.1554 c 0.22148,-0.0271 0.55418,-0.0266 0.73934,0.001 0.18515,0.0278 0.004,0.05 -0.40268,0.0493 -0.40664,-6.8e-4 -0.55813,-0.0234 -0.33666,-0.0506 z m -82.65352,-0.0795 c 0,-0.0253 0.097,-0.12126 0.21564,-0.21324 0.19543,-0.15157 0.19979,-0.14726 0.0465,0.046 -0.16097,0.20298 -0.26216,0.26753 -0.26216,0.16724 z m 21.86615,-0.71558 -0.48709,-0.51787 0.52369,0.48168 c 0.28803,0.26492 0.5237,0.49796 0.5237,0.51787 0,0.0922 -0.10731,-6e-5 -0.5603,-0.48168 z m 29.00892,0.30464 c -0.15328,-0.19327 -0.14892,-0.19758 0.0465,-0.046 0.1186,0.092 0.21564,0.18794 0.21564,0.21324 0,0.10029 -0.10119,0.0357 -0.26216,-0.16723 z m 18.73886,-0.24371 -0.42464,-0.45695 0.46208,0.41993 c 0.4301,0.39086 0.51874,0.49397 0.42464,0.49397 -0.0206,0 -0.22853,-0.20563 -0.46208,-0.45695 z m -58.77037,0.0305 c 0.15917,-0.16754 0.31712,-0.30463 0.35101,-0.30463 0.0339,0 -0.0686,0.13709 -0.22779,0.30463 -0.15917,0.16755 -0.31713,0.30464 -0.35102,0.30464 -0.0339,0 0.0686,-0.13709 0.2278,-0.30464 z m 19.16105,0.0609 c 0.12267,-0.13404 0.25076,-0.24371 0.28464,-0.24371 0.0339,0 -0.0388,0.10967 -0.16141,0.24371 -0.12267,0.13404 -0.25076,0.24371 -0.28464,0.24371 -0.0339,0 0.0387,-0.10967 0.16141,-0.24371 z m 28.40273,-0.0609 c 0.15917,-0.16754 0.31713,-0.30463 0.35101,-0.30463 0.0339,0 -0.0686,0.13709 -0.22779,0.30463 -0.15917,0.16755 -0.31713,0.30464 -0.35101,0.30464 -0.0339,0 0.0686,-0.13709 0.22779,-0.30464 z m -57.79123,0.13678 c 0,-0.0253 0.097,-0.12127 0.21564,-0.21325 0.19544,-0.15157 0.19979,-0.14726 0.0465,0.046 -0.16097,0.20298 -0.26216,0.26753 -0.26216,0.16724 z m 39.42448,-0.5328 -0.42464,-0.45695 0.46208,0.41993 c 0.4301,0.39086 0.51874,0.49397 0.42465,0.49397 -0.0206,0 -0.22853,-0.20563 -0.46209,-0.45695 z m -34.47613,-0.15232 c 0,-0.16754 0.028,-0.23609 0.0622,-0.15231 0.0342,0.0838 0.0342,0.22086 0,0.30463 -0.0342,0.0838 -0.0622,0.0152 -0.0622,-0.15232 z m 72.49683,0 c 0.12266,-0.13403 0.25075,-0.2437 0.28464,-0.2437 0.0339,0 -0.0388,0.10967 -0.16142,0.2437 -0.12267,0.13404 -0.25076,0.24371 -0.28464,0.24371 -0.0339,0 0.0387,-0.10967 0.16142,-0.24371 z m -66.60162,0.0759 c 0,-0.0253 0.097,-0.12126 0.21564,-0.21324 0.19543,-0.15157 0.19979,-0.14726 0.0465,0.046 -0.16098,0.20297 -0.26216,0.26752 -0.26216,0.16723 z m 19.28428,-0.1977 c 0.12266,-0.13404 0.25075,-0.2437 0.28464,-0.2437 0.0339,0 -0.0387,0.10966 -0.16142,0.2437 -0.12267,0.13404 -0.25076,0.24371 -0.28464,0.24371 -0.0339,0 0.0387,-0.10967 0.16142,-0.24371 z m 56.54993,-0.0276 -0.23737,-0.27705 0.27725,0.23213 0.27725,0.23213 0.0286,-3.15661 0.0286,-3.1566 0.0352,3.09902 c 0.0193,1.70446 -0.0115,3.14515 -0.0685,3.20153 -0.057,0.0564 -0.21047,-0.0222 -0.34103,-0.17455 z m -37.46219,-0.12473 -0.23474,-0.27417 0.27725,0.23212 c 0.26055,0.21815 0.33335,0.31621 0.23474,0.31621 -0.0234,0 -0.14815,-0.12337 -0.27725,-0.27416 z m 18.9106,0.0609 c -0.15327,-0.19326 -0.14891,-0.19757 0.0465,-0.046 0.20526,0.15918 0.27053,0.25924 0.16912,0.25924 -0.0256,0 -0.12263,-0.096 -0.21564,-0.21324 z m -67.01718,0.0454 c 0,-0.0253 0.097,-0.12127 0.21564,-0.21325 0.19544,-0.15157 0.19979,-0.14726 0.0465,0.046 -0.16097,0.20298 -0.26216,0.26752 -0.26216,0.16724 z m 0.49289,-0.36556 c 0,-0.0253 0.097,-0.12127 0.21564,-0.21325 0.19543,-0.15157 0.19979,-0.14726 0.0465,0.046 -0.16097,0.20298 -0.26216,0.26753 -0.26216,0.16724 z m 2.82478,-0.5328 -0.29873,-0.3351 0.33887,0.29541 c 0.18637,0.16248 0.33886,0.31327 0.33886,0.3351 0,0.0956 -0.0998,0.0178 -0.379,-0.29541 z m 56.79168,-0.35741 c 0.0889,-0.0352 0.19523,-0.0309 0.23617,0.01 0.041,0.0405 -0.0318,0.0693 -0.16173,0.064 -0.14354,-0.006 -0.17274,-0.0347 -0.0744,-0.0736 z m -47.0709,-0.12185 c 0.0889,-0.0352 0.19523,-0.0309 0.23618,0.01 0.0409,0.0405 -0.0318,0.0693 -0.16173,0.064 -0.14355,-0.006 -0.17275,-0.0347 -0.0744,-0.0736 z m 3.327,0 c 0.0889,-0.0352 0.19523,-0.0309 0.23618,0.01 0.0409,0.0405 -0.0318,0.0693 -0.16173,0.064 -0.14355,-0.006 -0.17275,-0.0347 -0.0744,-0.0736 z m 15.64923,0 c 0.089,-0.0352 0.19523,-0.0309 0.23617,0.01 0.041,0.0405 -0.0318,0.0693 -0.16173,0.064 -0.14354,-0.006 -0.17274,-0.0347 -0.0744,-0.0736 z m 3.08055,0 c 0.089,-0.0352 0.19523,-0.0309 0.23618,0.01 0.0409,0.0405 -0.0318,0.0693 -0.16173,0.064 -0.14355,-0.006 -0.17274,-0.0347 -0.0745,-0.0736 z m 7.27012,0 c 0.089,-0.0352 0.19523,-0.0309 0.23617,0.01 0.041,0.0405 -0.0318,0.0693 -0.16173,0.064 -0.14354,-0.006 -0.17274,-0.0347 -0.0744,-0.0736 z m 2.95733,0 c 0.089,-0.0352 0.19523,-0.0309 0.23618,0.01 0.0409,0.0405 -0.0318,0.0693 -0.16173,0.064 -0.14355,-0.006 -0.17275,-0.0347 -0.0745,-0.0736 z m 18.60656,0 c 0.089,-0.0352 0.19523,-0.0309 0.23617,0.01 0.0409,0.0405 -0.0318,0.0693 -0.16173,0.064 -0.14354,-0.006 -0.17274,-0.0347 -0.0744,-0.0736 z m -50.28238,-0.11932 c 0.0847,-0.0338 0.22334,-0.0338 0.30806,0 0.0847,0.0338 0.0154,0.0615 -0.15403,0.0615 -0.16943,0 -0.23874,-0.0277 -0.15403,-0.0615 z m 1.91229,-0.004 c 0.11989,-0.0309 0.28624,-0.0289 0.36967,0.005 0.0834,0.0334 -0.0147,0.0587 -0.21798,0.0562 -0.20332,-0.002 -0.27158,-0.0298 -0.15169,-0.0607 z m 17.06394,0.004 c 0.0847,-0.0338 0.22334,-0.0338 0.30805,0 0.0847,0.0338 0.0154,0.0615 -0.15402,0.0615 -0.16944,0 -0.23875,-0.0277 -0.15403,-0.0615 z m 1.66584,-0.004 c 0.11989,-0.0309 0.28624,-0.0289 0.36967,0.005 0.0834,0.0334 -0.0147,0.0587 -0.21798,0.0562 -0.20332,-0.002 -0.27158,-0.0298 -0.15169,-0.0607 z m 8.74878,0 c 0.11989,-0.0309 0.28624,-0.0289 0.36967,0.005 0.0834,0.0334 -0.0147,0.0587 -0.21799,0.0562 -0.20331,-0.002 -0.27157,-0.0298 -0.15168,-0.0607 z m 1.53793,0.004 c 0.0847,-0.0338 0.22334,-0.0338 0.30806,0 0.0847,0.0338 0.0154,0.0615 -0.15403,0.0615 -0.16943,0 -0.23874,-0.0277 -0.15403,-0.0615 z m 16.75823,0 c 0.0847,-0.0338 0.22334,-0.0338 0.30805,0 0.0847,0.0338 0.0154,0.0615 -0.15402,0.0615 -0.16943,0 -0.23875,-0.0277 -0.15403,-0.0615 z m 1.78907,-0.004 c 0.11989,-0.0309 0.28624,-0.0289 0.36966,0.005 0.0834,0.0334 -0.0147,0.0587 -0.21798,0.0562 -0.20332,-0.002 -0.27157,-0.0298 -0.15168,-0.0607 z m 17.00467,0 c 0.11989,-0.0309 0.28624,-0.0289 0.36966,0.005 0.0834,0.0334 -0.0147,0.0587 -0.21798,0.0562 -0.20332,-0.002 -0.27158,-0.0298 -0.15168,-0.0607 z m 1.90759,0.004 c 0.0847,-0.0338 0.22335,-0.0338 0.30806,0 0.0847,0.0338 0.0154,0.0615 -0.15403,0.0615 -0.16943,0 -0.23874,-0.0277 -0.15403,-0.0615 z m 6.82749,-4.54971 c 0,-0.16755 0.028,-0.23609 0.0621,-0.15232 0.0342,0.0838 0.0342,0.22086 0,0.30463 -0.0342,0.0838 -0.0621,0.0152 -0.0621,-0.15231 z m -97.72496,-0.0711 c 0.006,-0.14195 0.0351,-0.17082 0.0744,-0.0736 0.0356,0.088 0.0312,0.19306 -0.01,0.23355 -0.041,0.0405 -0.0701,-0.0315 -0.0647,-0.15994 z m 94.87139,-0.16543 c 0,-0.0631 0.0548,-0.14816 0.12181,-0.18911 0.0699,-0.0427 0.0905,0.006 0.0484,0.11466 -0.0819,0.2111 -0.17024,0.24973 -0.17024,0.0745 z m -92.66312,-0.73831 c -0.11106,-0.071 -0.12626,-0.11887 -0.0381,-0.11999 0.0807,-0.001 0.18103,0.053 0.22291,0.11999 0.0946,0.15128 0.0519,0.15128 -0.18483,0 z m 94.7579,0 c -0.11106,-0.071 -0.12626,-0.11887 -0.0381,-0.11999 0.0807,-0.001 0.18103,0.053 0.22291,0.11999 0.0945,0.15128 0.0519,0.15128 -0.18483,0 z m -95.58731,-0.2063 c 0.11989,-0.0309 0.28624,-0.0289 0.36967,0.005 0.0834,0.0334 -0.0147,0.0587 -0.21798,0.0562 -0.20332,-0.002 -0.27158,-0.0298 -0.15169,-0.0607 z m 94.88113,0 c 0.11989,-0.0309 0.28624,-0.0289 0.36966,0.005 0.0834,0.0334 -0.0147,0.0587 -0.21798,0.0562 -0.20332,-0.002 -0.27157,-0.0298 -0.15168,-0.0607 z m 15.15633,-3.04632 c 0.11989,-0.0309 0.28624,-0.0289 0.36967,0.005 0.0834,0.0334 -0.0147,0.0587 -0.21798,0.0562 -0.20332,-0.002 -0.27158,-0.0298 -0.15169,-0.0607 z"
         id="path7" /><path
         style="display:inline;fill:#f3f6fb"
         d="m 405.5204,141.35021 v -13.16014 h 0.30806 0.30805 v 13.16014 13.16013 h -0.30805 -0.30806 v -6.93962 z m -144.90935,12.66393 c -4.69657,-0.40233 -7.91582,-1.19596 -9.86278,-2.43144 -0.33445,-0.21223 -0.88214,-0.68239 -1.21708,-1.0448 -0.7449,-0.80599 -0.97662,-1.61332 -0.75559,-2.63252 0.17751,-0.81852 0.47439,-1.27575 1.34719,-2.07483 1.29703,-1.18748 3.48327,-2.07769 5.90917,-2.40615 0.89597,-0.12131 1.0687,-0.10505 2.49362,0.23482 4.45152,1.06175 8.11296,1.48671 13.19811,1.53181 4.31656,0.0383 4.17442,0.0133 6.56975,1.1546 2.16043,1.02937 3.14217,2.00075 3.14217,3.10901 0,1.98506 -3.74848,3.63496 -9.98101,4.39315 -1.94802,0.23698 -8.79324,0.342 -10.84355,0.16635 z m 55.27336,-2.01419 c -3.60822,-0.86305 -6.03864,-4.1142 -5.82063,-7.7862 0.22406,-3.7737 2.94647,-6.67601 6.80802,-7.25789 2.43062,-0.36627 5.17098,0.66228 6.86529,2.57677 0.76427,0.86359 1.53454,2.34358 1.7549,3.37183 0.20883,0.9745 0.2582,7.73207 0.0602,8.24693 -0.27503,0.71534 -1.43377,1.0138 -2.18271,0.56221 -0.35995,-0.21704 -0.65148,-0.80375 -0.65379,-1.3158 -10e-4,-0.23538 -0.11769,-0.18623 -0.61731,0.26014 -1.48607,1.32765 -4.0022,1.87105 -6.21402,1.34201 z m 3.93163,-3.07544 c 1.67251,-0.77396 2.75665,-2.32221 2.87213,-4.10165 0.0511,-0.78803 0.0113,-1.04618 -0.2866,-1.85879 -0.29249,-0.79775 -0.47125,-1.06787 -1.15606,-1.74686 -0.61174,-0.60654 -0.99108,-0.87056 -1.5494,-1.07836 -1.83178,-0.68176 -3.67063,-0.35318 -5.09106,0.90971 -1.09001,0.96913 -1.78017,2.87363 -1.52776,4.21584 0.27504,1.4625 1.16732,2.80444 2.30194,3.46199 1.31273,0.76076 3.05304,0.83847 4.43681,0.19812 z m 43.63643,3.0764 c -2.1655,-0.51815 -4.17956,-2.17824 -5.08646,-4.19249 -0.7449,-1.65446 -0.88326,-3.90592 -0.3438,-5.59463 1.01931,-3.19086 3.98231,-5.29658 7.45096,-5.2952 3.36767,0.001 6.10895,1.86309 7.35751,4.99691 0.30448,0.76422 0.33355,0.98252 0.33849,2.54196 0.005,1.48063 -0.0337,1.82387 -0.29038,2.59883 -0.79406,2.3971 -2.83504,4.25339 -5.38594,4.89855 -1.13183,0.28626 -2.94993,0.30699 -4.04038,0.0461 z m 4.07663,-3.15994 c 1.05215,-0.50952 1.75165,-1.22969 2.30486,-2.37293 0.34596,-0.71495 0.38327,-0.90498 0.38327,-1.9523 0,-1.06406 -0.0334,-1.2273 -0.40266,-1.96899 -0.51256,-1.02948 -1.58483,-2.03926 -2.58122,-2.43079 -1.06909,-0.4201 -2.67223,-0.40204 -3.63639,0.041 -1.98633,0.91264 -3.0289,2.60589 -2.90414,4.71668 0.20233,3.42314 3.73119,5.47108 6.83628,3.96738 z m 14.72715,3.11481 c -2.52372,-0.67362 -4.49504,-2.60985 -5.27705,-5.18311 -0.3013,-0.99148 -0.3007,-3.22775 0.001,-4.31709 0.82522,-2.97792 3.39393,-5.12692 6.60115,-5.52255 0.86496,-0.1067 1.22381,-0.0951 2.01198,0.0652 1.14876,0.23355 2.1643,0.67399 2.867,1.24341 0.28407,0.23018 0.55133,0.38405 0.59392,0.34194 0.0426,-0.0421 0.0774,-1.46842 0.0774,-3.16957 0,-2.56929 0.0327,-3.15549 0.19302,-3.4621 0.20794,-0.39765 0.81927,-0.71575 1.37411,-0.71502 0.48787,6.5e-4 1.12052,0.42055 1.23287,0.81828 0.0526,0.18638 0.0957,3.40957 0.0957,7.16265 0,6.27532 -0.0182,6.88202 -0.22616,7.54852 -0.75559,2.42131 -2.54096,4.28863 -4.83513,5.05709 -1.21732,0.40775 -3.44392,0.47034 -4.71002,0.13239 z m 3.98518,-2.97648 c 0.37018,-0.1676 0.96831,-0.58085 1.32916,-0.91834 2.06953,-1.93552 2.01363,-5.1428 -0.12328,-7.07412 -0.91271,-0.82489 -1.78823,-1.14846 -3.12412,-1.1546 -0.93759,-0.004 -1.13605,0.0369 -1.84833,0.38404 -1.53699,0.749 -2.48585,2.08259 -2.74437,3.85712 -0.11407,0.78297 -0.0978,0.97447 0.15128,1.78552 0.56779,1.84856 1.64877,2.92094 3.39702,3.36998 0.88221,0.2266 2.14596,0.12013 2.96264,-0.2496 z m -91.06654,2.85588 c -0.13555,-0.0555 -0.38507,-0.24831 -0.5545,-0.42858 l -0.30806,-0.32778 v -9.41535 c 0,-7.82045 0.0291,-9.46915 0.17187,-9.73292 0.33682,-0.62236 1.39271,-0.87702 2.11177,-0.50931 0.73348,0.37508 0.7353,0.39032 0.7353,6.14547 0,2.88515 0.0416,5.24573 0.0924,5.24573 0.0509,0 1.26165,-0.91846 2.69067,-2.04104 3.69171,-2.90003 4.40458,-3.42661 4.84384,-3.57804 1.23207,-0.42473 2.36365,0.83166 1.80242,2.00122 -0.11492,0.23948 -0.35665,0.5308 -0.53718,0.64739 -0.51093,0.32996 -4.44258,3.33751 -4.51548,3.45416 -0.0357,0.0572 0.42045,0.61748 1.01374,1.24511 2.78995,2.95147 4.78293,5.1326 4.85914,5.31786 0.14864,0.36134 0.10611,0.99811 -0.0919,1.37686 -0.32074,0.61336 -1.46413,0.9169 -2.10506,0.55883 -0.27017,-0.15094 -2.22994,-2.25136 -4.66397,-4.99872 -0.7455,-0.84146 -1.38317,-1.5335 -1.41706,-1.53786 -0.0339,-0.004 -0.49135,0.3237 -1.01658,0.72903 l -0.95498,0.73698 v 2.07132 c 0,1.64187 -0.04,2.14784 -0.19301,2.44042 -0.3025,0.57846 -1.28272,0.87762 -1.96337,0.59922 z m 35.47358,-0.0767 c -0.21125,-0.10306 -0.44692,-0.32373 -0.5237,-0.49037 -0.0958,-0.2079 -0.1396,-1.68964 -0.1396,-4.72124 0,-4.98008 0.0297,-5.18131 0.97844,-6.63292 1.11174,-1.70096 2.56969,-2.59065 4.83849,-2.95257 1.96405,-0.31332 4.3235,0.42279 5.63076,1.7567 l 0.4193,0.42785 0.62809,-0.56137 c 0.87296,-0.78023 2.15671,-1.3581 3.52326,-1.58596 1.01385,-0.16905 1.22052,-0.1683 2.19265,0.008 2.75738,0.4998 4.83261,2.44154 5.39018,5.04345 0.26893,1.25502 0.25803,8.54591 -0.0136,9.11203 -0.50378,1.04986 -2.06131,1.01339 -2.71384,-0.0636 -0.0609,-0.10053 -0.13847,-2.12939 -0.17236,-4.50857 l -0.0616,-4.32578 -0.33415,-0.56209 c -0.98873,-1.66319 -3.0239,-2.34006 -4.75124,-1.58019 -0.79004,0.34754 -1.76693,1.36051 -1.9753,2.04824 -0.10103,0.33347 -0.15001,1.73669 -0.15476,4.43396 -0.005,2.72783 -0.0524,4.07423 -0.15403,4.36116 -0.41345,1.16686 -2.1773,1.30936 -2.75524,0.22259 -0.18458,-0.34708 -0.21049,-0.87973 -0.21773,-4.47604 -0.008,-3.99181 -0.0145,-4.09555 -0.29136,-4.69134 -0.56179,-1.20886 -1.74782,-2.05706 -3.09733,-2.21512 -1.31576,-0.1541 -2.94332,0.74829 -3.58274,1.98643 -0.30569,0.5919 -0.30714,0.61108 -0.36851,4.85911 -0.0669,4.63188 -0.0673,4.63444 -0.778,5.06297 -0.47048,0.28368 -0.99451,0.29914 -1.51603,0.0447 z"
         id="path6"
         sodipodi:nodetypes="cccccccccccssssssssssccsssscsccccsccsssssscsscsccscccsscscscccscscssssscscsccscsccscsscscscssscsssccscsscscsscsssccscsscscsccsssccsccsscsss" /><path
         style="display:inline;fill:#f3f6fb"
         d="m 405.5204,141.35021 v -13.16014 h 0.30806 0.30805 v 13.16014 13.16013 h -0.30805 -0.30806 v -6.93962 z"
         id="path10"
         sodipodi:nodetypes="cccccccccc"
         inkscape:label="arrow" /><path
         style="display:inline;fill:#f59e1e"
         d="m 438.08232,149.70858 c -1.26337,-0.40622 -2.21577,-1.27655 -2.83459,-2.59035 -0.28586,-0.60691 -0.33514,-0.87183 -0.33627,-1.8078 -10e-4,-0.97743 0.0407,-1.18443 0.38475,-1.90375 0.51128,-1.06879 1.13694,-1.7297 2.0653,-2.18165 1.57814,-0.76829 3.16628,-0.75636 4.67222,0.0351 2.77326,1.45749 3.22555,5.47425 0.84878,7.5379 -0.83175,0.72217 -1.6641,1.00795 -3.04472,1.04539 -0.80056,0.0217 -1.41552,-0.0255 -1.75547,-0.13483 z m 2.46425,-1.70845 c 1.50308,-0.53044 2.24086,-2.0321 1.77574,-3.61428 -0.69383,-2.36017 -4.00584,-2.64171 -5.15188,-0.43793 -1.18139,2.27174 1.00051,4.89056 3.37614,4.05221 z m 8.68847,1.69534 c -1.10624,-0.40183 -2.13516,-1.36255 -2.66754,-2.49075 -0.27568,-0.5842 -0.3191,-0.84085 -0.32052,-1.89429 -0.001,-1.06901 0.0389,-1.30402 0.32861,-1.91529 1.54621,-3.26228 6.05569,-3.69813 8.12792,-0.78559 0.62931,0.8845 0.84924,1.58904 0.86212,2.76181 0.022,1.99907 -1.19573,3.67606 -3.13267,4.31429 -0.72773,0.23979 -2.54942,0.24538 -3.19792,0.01 z m 2.63751,-1.74912 c 1.37775,-0.58741 2.07221,-2.04659 1.65289,-3.47297 -0.37363,-1.27096 -1.36066,-2.02114 -2.65926,-2.02114 -1.638,0 -2.71089,1.13867 -2.71089,2.87712 0,2.06078 1.89415,3.39428 3.71726,2.61699 z m 16.89959,1.70727 c -1.30682,-0.44656 -2.11641,-1.18774 -1.90318,-1.74237 0.28443,-0.73979 0.91706,-0.81812 1.77397,-0.21964 0.48344,0.33764 0.72568,0.41886 1.37032,0.45945 1.30348,0.0821 1.96879,-0.39494 1.75049,-1.25505 -0.091,-0.35856 -0.65279,-0.66199 -1.79811,-0.9712 -2.12063,-0.57252 -2.98967,-1.50061 -2.78537,-2.97461 0.15225,-1.09843 0.92695,-1.8224 2.31167,-2.16032 0.69104,-0.16864 0.94286,-0.17622 1.69377,-0.051 0.88932,0.14834 1.86745,0.65805 2.15453,1.12274 0.18619,0.30138 -0.0447,0.84528 -0.45373,1.06888 -0.32202,0.17603 -0.37746,0.16672 -0.9831,-0.16494 -0.43591,-0.23872 -0.88063,-0.37045 -1.38609,-0.41057 -0.67439,-0.0535 -0.78148,-0.0281 -1.14086,0.27093 -0.80702,0.67152 -0.37416,1.3223 1.17246,1.76269 2.51178,0.71521 3.11661,1.27365 3.10999,2.87144 -0.008,1.92256 -2.57933,3.18201 -4.88676,2.39354 z m -46.37029,-0.13925 c -0.23974,-0.23708 -0.24645,-0.40618 -0.24645,-6.21451 0,-5.80834 0.007,-5.97744 0.24645,-6.21451 0.32389,-0.3203 0.98264,-0.31614 1.40043,0.009 l 0.32468,0.25255 v 2.55007 2.55007 h 3.14217 3.14216 v -2.50352 c 0,-2.4956 9.6e-4,-2.50448 0.30246,-2.80262 0.41306,-0.40848 1.07833,-0.40697 1.49329,0.003 l 0.30587,0.30247 -0.0342,5.92287 -0.0342,5.92287 -0.2909,0.23287 c -0.4427,0.35439 -1.16911,0.3113 -1.48688,-0.0882 -0.23938,-0.30095 -0.25539,-0.47661 -0.25539,-2.80263 v -2.48155 h -3.14216 -3.14217 v 2.53767 c 0,2.49505 -0.005,2.54213 -0.28519,2.80262 -0.37269,0.34624 -1.10042,0.35697 -1.43992,0.0213 z m 35.66723,-0.0554 -0.30245,-0.2991 v -5.65527 c 0,-5.53678 0.005,-5.66201 0.25539,-5.97634 0.32583,-0.40963 1.09289,-0.45001 1.46972,-0.0774 0.23405,0.23144 0.24644,0.40617 0.24644,3.47281 v 3.22911 h 0.40653 c 0.36482,0 0.56047,-0.16721 1.90764,-1.63038 1.02964,-1.1183 1.60481,-1.64998 1.83126,-1.69278 0.78785,-0.14894 1.47928,0.50793 1.10881,1.05338 -0.0968,0.14256 -0.73017,0.83496 -1.40742,1.53866 l -1.23138,1.27946 0.44573,0.60926 c 0.24515,0.3351 0.89448,1.21244 1.44297,1.94965 0.54848,0.73721 1.03119,1.46981 1.07268,1.62799 0.10706,0.40814 -0.38357,0.87087 -0.91957,0.86729 -0.51931,-0.003 -0.78517,-0.22647 -1.52212,-1.27675 -0.32918,-0.46913 -0.91812,-1.27261 -1.30876,-1.78551 l -0.71025,-0.93255 -0.52725,0.15361 -0.52725,0.15361 -0.0616,1.67256 c -0.0543,1.47413 -0.09,1.69304 -0.3008,1.84515 -0.38088,0.27483 -1.02243,0.21552 -1.3683,-0.1265 z"
         id="path13"
         sodipodi:nodetypes="ssccsssssssssscsccscsccssssssssssssssssssssssscscccccccssccccssscccscccccscsscssssscssscsscccsscc"
         inkscape:label="hooks" /></g><path
       style="display:inline;fill:#f59e1e"
       d="m 268.49727,144.01887 c -6.72451,-0.36927 -12.54542,-1.80353 -15.25468,-3.75872 -1.10603,-0.79819 -1.53484,-2.01086 -1.06055,-2.99924 0.6944,-1.44708 3.3627,-2.61924 6.76551,-2.97202 1.29964,-0.13474 1.40363,-0.12775 2.52605,0.16985 2.44001,0.64694 6.36339,1.16436 8.82883,1.16436 1.30941,0 1.49422,0.0308 2.60542,0.43405 2.63774,0.95726 5.08611,2.38451 5.97178,3.48119 0.7355,0.91074 0.7118,1.9296 -0.0627,2.6955 -1.00066,0.98955 -3.01662,1.58043 -6.10909,1.7906 -1.03892,0.0706 -2.00929,0.12032 -2.15639,0.11046 -0.1471,-0.01 -1.07147,-0.0621 -2.05417,-0.11603 z m -3.1944,-9.86924 c -4.04747,-0.6145 -6.91562,-1.78266 -7.87978,-3.20935 -1.09024,-1.61324 0.34359,-3.44958 3.14622,-4.02946 1.39964,-0.28959 2.39025,-0.33868 3.80639,-0.18866 4.03254,0.42722 7.88536,1.96585 9.67992,3.86571 1.68197,1.78066 0.71951,3.25585 -2.40456,3.68554 -1.48089,0.20368 -4.59074,0.14305 -6.34819,-0.12378 z"
       id="path11"
       transform="matrix(1.0247819,0,0,0.99999996,-115.44656,-79.175215)"
       sodipodi:nodetypes="sssssscssscsscsscssc"
       sodipodi:insensitive="true" /><path
       style="display:none;fill:#f3f6fb"
       d="m 405.5204,141.35021 v -8.28465 -4.87549 h 0.30806 0.30805 v 13.16014 13.16013 h -0.30805 -0.30806 v -6.93962 z m -144.90935,12.66393 c -4.69657,-0.40233 -7.91582,-1.19596 -9.86278,-2.43144 -0.33445,-0.21223 -0.88214,-0.68239 -1.21708,-1.0448 -0.7449,-0.80599 -0.97662,-1.61332 -0.75559,-2.63252 0.17751,-0.81852 0.47439,-1.27575 1.34719,-2.07483 1.29703,-1.18748 3.48327,-2.07769 5.90917,-2.40615 0.89597,-0.12131 1.0687,-0.10505 2.49362,0.23482 4.45152,1.06175 8.11296,1.48671 13.19811,1.53181 4.31656,0.0383 4.17442,0.0133 6.56975,1.1546 2.16043,1.02937 3.14217,2.00075 3.14217,3.10901 0,1.98506 -3.74848,3.63496 -9.98101,4.39315 -1.94802,0.23698 -8.79324,0.342 -10.84355,0.16635 z m 55.27336,-2.01419 c -3.60822,-0.86305 -6.03864,-4.1142 -5.82063,-7.7862 0.22406,-3.7737 2.94647,-6.67601 6.80802,-7.25789 2.43062,-0.36627 5.17098,0.66228 6.86529,2.57677 0.76427,0.86359 1.53454,2.34358 1.7549,3.37183 0.20883,0.9745 0.2582,7.73207 0.0602,8.24693 -0.27503,0.71534 -1.43377,1.0138 -2.18271,0.56221 -0.35995,-0.21704 -0.65148,-0.80375 -0.65379,-1.3158 -10e-4,-0.23538 -0.11769,-0.18623 -0.61731,0.26014 -1.48607,1.32765 -4.0022,1.87105 -6.21402,1.34201 z m 3.93163,-3.07544 c 1.67251,-0.77396 2.75665,-2.32221 2.87213,-4.10165 0.0511,-0.78803 0.0113,-1.04618 -0.2866,-1.85879 -0.29249,-0.79775 -0.47125,-1.06787 -1.15606,-1.74686 -0.61174,-0.60654 -0.99108,-0.87056 -1.5494,-1.07836 -1.83178,-0.68176 -3.67063,-0.35318 -5.09106,0.90971 -1.09001,0.96913 -1.78017,2.87363 -1.52776,4.21584 0.27504,1.4625 1.16732,2.80444 2.30194,3.46199 1.31273,0.76076 3.05304,0.83847 4.43681,0.19812 z m 43.63643,3.0764 c -2.1655,-0.51815 -4.17956,-2.17824 -5.08646,-4.19249 -0.7449,-1.65446 -0.88326,-3.90592 -0.3438,-5.59463 1.01931,-3.19086 3.98231,-5.29658 7.45096,-5.2952 3.36767,0.001 6.10895,1.86309 7.35751,4.99691 0.30448,0.76422 0.33355,0.98252 0.33849,2.54196 0.005,1.48063 -0.0337,1.82387 -0.29038,2.59883 -0.79406,2.3971 -2.83504,4.25339 -5.38594,4.89855 -1.13183,0.28626 -2.94993,0.30699 -4.04038,0.0461 z m 4.07663,-3.15994 c 1.05215,-0.50952 1.75165,-1.22969 2.30486,-2.37293 0.34596,-0.71495 0.38327,-0.90498 0.38327,-1.9523 0,-1.06406 -0.0334,-1.2273 -0.40266,-1.96899 -0.51256,-1.02948 -1.58483,-2.03926 -2.58122,-2.43079 -1.06909,-0.4201 -2.67223,-0.40204 -3.63639,0.041 -1.98633,0.91264 -3.0289,2.60589 -2.90414,4.71668 0.20233,3.42314 3.73119,5.47108 6.83628,3.96738 z m 14.72715,3.11481 c -2.52372,-0.67362 -4.49504,-2.60985 -5.27705,-5.18311 -0.3013,-0.99148 -0.3007,-3.22775 0.001,-4.31709 0.82522,-2.97792 3.39393,-5.12692 6.60115,-5.52255 0.86496,-0.1067 1.22381,-0.0951 2.01198,0.0652 1.14876,0.23355 2.1643,0.67399 2.867,1.24341 0.28407,0.23018 0.55133,0.38405 0.59392,0.34194 0.0426,-0.0421 0.0774,-1.46842 0.0774,-3.16957 0,-2.56929 0.0327,-3.15549 0.19302,-3.4621 0.20794,-0.39765 0.81927,-0.71575 1.37411,-0.71502 0.48787,6.5e-4 1.12052,0.42055 1.23287,0.81828 0.0526,0.18638 0.0957,3.40957 0.0957,7.16265 0,6.27532 -0.0182,6.88202 -0.22616,7.54852 -0.75559,2.42131 -2.54096,4.28863 -4.83513,5.05709 -1.21732,0.40775 -3.44392,0.47034 -4.71002,0.13239 z m 3.98518,-2.97648 c 0.37018,-0.1676 0.96831,-0.58085 1.32916,-0.91834 2.06953,-1.93552 2.01363,-5.1428 -0.12328,-7.07412 -0.91271,-0.82489 -1.78823,-1.14846 -3.12412,-1.1546 -0.93759,-0.004 -1.13605,0.0369 -1.84833,0.38404 -1.53699,0.749 -2.48585,2.08259 -2.74437,3.85712 -0.11407,0.78297 -0.0978,0.97447 0.15128,1.78552 0.56779,1.84856 1.64877,2.92094 3.39702,3.36998 0.88221,0.2266 2.14596,0.12013 2.96264,-0.2496 z m -91.06654,2.85588 c -0.13555,-0.0555 -0.38507,-0.24831 -0.5545,-0.42858 l -0.30806,-0.32778 v -9.41535 c 0,-7.82045 0.0291,-9.46915 0.17187,-9.73292 0.33682,-0.62236 1.39271,-0.87702 2.11177,-0.50931 0.73348,0.37508 0.7353,0.39032 0.7353,6.14547 0,2.88515 0.0416,5.24573 0.0924,5.24573 0.0509,0 1.26165,-0.91846 2.69067,-2.04104 3.69171,-2.90003 4.40458,-3.42661 4.84384,-3.57804 1.23207,-0.42473 2.36365,0.83166 1.80242,2.00122 -0.11492,0.23948 -0.35665,0.5308 -0.53718,0.64739 -0.51093,0.32996 -4.44258,3.33751 -4.51548,3.45416 -0.0357,0.0572 0.42045,0.61748 1.01374,1.24511 2.78995,2.95147 4.78293,5.1326 4.85914,5.31786 0.14864,0.36134 0.10611,0.99811 -0.0919,1.37686 -0.32074,0.61336 -1.46413,0.9169 -2.10506,0.55883 -0.27017,-0.15094 -2.22994,-2.25136 -4.66397,-4.99872 -0.7455,-0.84146 -1.38317,-1.5335 -1.41706,-1.53786 -0.0339,-0.004 -0.49135,0.3237 -1.01658,0.72903 l -0.95498,0.73698 v 2.07132 c 0,1.64187 -0.04,2.14784 -0.19301,2.44042 -0.3025,0.57846 -1.28272,0.87762 -1.96337,0.59922 z m 35.47358,-0.0767 c -0.21125,-0.10306 -0.44692,-0.32373 -0.5237,-0.49037 -0.0958,-0.2079 -0.1396,-1.68964 -0.1396,-4.72124 0,-4.98008 0.0297,-5.18131 0.97844,-6.63292 1.11174,-1.70096 2.56969,-2.59065 4.83849,-2.95257 1.96405,-0.31332 4.3235,0.42279 5.63076,1.7567 l 0.4193,0.42785 0.62809,-0.56137 c 0.87296,-0.78023 2.15671,-1.3581 3.52326,-1.58596 1.01385,-0.16905 1.22052,-0.1683 2.19265,0.008 2.75738,0.4998 4.83261,2.44154 5.39018,5.04345 0.26893,1.25502 0.25803,8.54591 -0.0136,9.11203 -0.50378,1.04986 -2.06131,1.01339 -2.71384,-0.0636 -0.0609,-0.10053 -0.13847,-2.12939 -0.17236,-4.50857 l -0.0616,-4.32578 -0.33415,-0.56209 c -0.98873,-1.66319 -3.0239,-2.34006 -4.75124,-1.58019 -0.79004,0.34754 -1.76693,1.36051 -1.9753,2.04824 -0.10103,0.33347 -0.15001,1.73669 -0.15476,4.43396 -0.005,2.72783 -0.0524,4.07423 -0.15403,4.36116 -0.41345,1.16686 -2.1773,1.30936 -2.75524,0.22259 -0.18458,-0.34708 -0.21049,-0.87973 -0.21773,-4.47604 -0.008,-3.99181 -0.0145,-4.09555 -0.29136,-4.69134 -0.56179,-1.20886 -1.74782,-2.05706 -3.09733,-2.21512 -1.31576,-0.1541 -2.94332,0.74829 -3.58274,1.98643 -0.30569,0.5919 -0.30714,0.61108 -0.36851,4.85911 -0.0669,4.63188 -0.0673,4.63444 -0.778,5.06297 -0.47048,0.28368 -0.99451,0.29914 -1.51603,0.0447 z"
       id="path12"
       sodipodi:nodetypes="ccccccccccccssssssssssccsssscsccccsccsssssscsscsccscccsscscscccscscssssscscsccscsccscsscscscssscsssccscsscscsscsssccscsscscsccsssccsccsscsss"
       transform="matrix(1.0247819,0,0,0.99999996,-115.44656,-79.175215)"
       sodipodi:insensitive="true" /><path
       style="display:inline;fill:#f3f6fb"
       d="m 260.61105,154.01414 c -4.69657,-0.40233 -7.91582,-1.19596 -9.86278,-2.43144 -0.33445,-0.21223 -0.88214,-0.68239 -1.21708,-1.0448 -0.7449,-0.80599 -0.97662,-1.61332 -0.75559,-2.63252 0.17751,-0.81852 0.47439,-1.27575 1.34719,-2.07483 1.29703,-1.18748 3.48327,-2.07769 5.90917,-2.40615 0.89597,-0.12131 1.0687,-0.10505 2.49362,0.23482 4.45152,1.06175 8.11296,1.48671 13.19811,1.53181 4.31656,0.0383 4.17442,0.0133 6.56975,1.1546 2.16043,1.02937 3.14217,2.00075 3.14217,3.10901 0,1.98506 -3.74848,3.63496 -9.98101,4.39315 -1.94802,0.23698 -8.79324,0.342 -10.84355,0.16635 z m 55.27336,-2.01419 c -3.60822,-0.86305 -6.03864,-4.1142 -5.82063,-7.7862 0.22406,-3.7737 2.94647,-6.67601 6.80802,-7.25789 2.43062,-0.36627 5.17098,0.66228 6.86529,2.57677 0.76427,0.86359 1.53454,2.34358 1.7549,3.37183 0.20883,0.9745 0.2582,7.73207 0.0602,8.24693 -0.27503,0.71534 -1.43377,1.0138 -2.18271,0.56221 -0.35995,-0.21704 -0.65148,-0.80375 -0.65379,-1.3158 -10e-4,-0.23538 -0.11769,-0.18623 -0.61731,0.26014 -1.48607,1.32765 -4.0022,1.87105 -6.21402,1.34201 z m 3.93163,-3.07544 c 1.67251,-0.77396 2.75665,-2.32221 2.87213,-4.10165 0.0511,-0.78803 0.0113,-1.04618 -0.2866,-1.85879 -0.29249,-0.79775 -0.47125,-1.06787 -1.15606,-1.74686 -0.61174,-0.60654 -0.99108,-0.87056 -1.5494,-1.07836 -1.83178,-0.68176 -3.67063,-0.35318 -5.09106,0.90971 -1.09001,0.96913 -1.78017,2.87363 -1.52776,4.21584 0.27504,1.4625 1.16732,2.80444 2.30194,3.46199 1.31273,0.76076 3.05304,0.83847 4.43681,0.19812 z m 43.63643,3.0764 c -2.1655,-0.51815 -4.17956,-2.17824 -5.08646,-4.19249 -0.7449,-1.65446 -0.88326,-3.90592 -0.3438,-5.59463 1.01931,-3.19086 3.98231,-5.29658 7.45096,-5.2952 3.36767,0.001 6.10895,1.86309 7.35751,4.99691 0.30448,0.76422 0.33355,0.98252 0.33849,2.54196 0.005,1.48063 -0.0337,1.82387 -0.29038,2.59883 -0.79406,2.3971 -2.83504,4.25339 -5.38594,4.89855 -1.13183,0.28626 -2.94993,0.30699 -4.04038,0.0461 z m 4.07663,-3.15994 c 1.05215,-0.50952 1.75165,-1.22969 2.30486,-2.37293 0.34596,-0.71495 0.38327,-0.90498 0.38327,-1.9523 0,-1.06406 -0.0334,-1.2273 -0.40266,-1.96899 -0.51256,-1.02948 -1.58483,-2.03926 -2.58122,-2.43079 -1.06909,-0.4201 -2.67223,-0.40204 -3.63639,0.041 -1.98633,0.91264 -3.0289,2.60589 -2.90414,4.71668 0.20233,3.42314 3.73119,5.47108 6.83628,3.96738 z m 14.72715,3.11481 c -2.52372,-0.67362 -4.49504,-2.60985 -5.27705,-5.18311 -0.3013,-0.99148 -0.3007,-3.22775 0.001,-4.31709 0.82522,-2.97792 3.39393,-5.12692 6.60115,-5.52255 0.86496,-0.1067 1.22381,-0.0951 2.01198,0.0652 1.14876,0.23355 2.1643,0.67399 2.867,1.24341 0.28407,0.23018 0.55133,0.38405 0.59392,0.34194 0.0426,-0.0421 0.0774,-1.46842 0.0774,-3.16957 0,-2.56929 0.0327,-3.15549 0.19302,-3.4621 0.20794,-0.39765 0.81927,-0.71575 1.37411,-0.71502 0.48787,6.5e-4 1.12052,0.42055 1.23287,0.81828 0.0526,0.18638 0.0957,3.40957 0.0957,7.16265 0,6.27532 -0.0182,6.88202 -0.22616,7.54852 -0.75559,2.42131 -2.54096,4.28863 -4.83513,5.05709 -1.21732,0.40775 -3.44392,0.47034 -4.71002,0.13239 z m 3.98518,-2.97648 c 0.37018,-0.1676 0.96831,-0.58085 1.32916,-0.91834 2.06953,-1.93552 2.01363,-5.1428 -0.12328,-7.07412 -0.91271,-0.82489 -1.78823,-1.14846 -3.12412,-1.1546 -0.93759,-0.004 -1.13605,0.0369 -1.84833,0.38404 -1.53699,0.749 -2.48585,2.08259 -2.74437,3.85712 -0.11407,0.78297 -0.0978,0.97447 0.15128,1.78552 0.56779,1.84856 1.64877,2.92094 3.39702,3.36998 0.88221,0.2266 2.14596,0.12013 2.96264,-0.2496 z m -91.06654,2.85588 c -0.13555,-0.0555 -0.38507,-0.24831 -0.5545,-0.42858 l -0.30806,-0.32778 v -9.41535 c 0,-7.82045 0.0291,-9.46915 0.17187,-9.73292 0.33682,-0.62236 1.39271,-0.87702 2.11177,-0.50931 0.73348,0.37508 0.7353,0.39032 0.7353,6.14547 0,2.88515 0.0416,5.24573 0.0924,5.24573 0.0509,0 1.26165,-0.91846 2.69067,-2.04104 3.69171,-2.90003 4.40458,-3.42661 4.84384,-3.57804 1.23207,-0.42473 2.36365,0.83166 1.80242,2.00122 -0.11492,0.23948 -0.35665,0.5308 -0.53718,0.64739 -0.51093,0.32996 -4.44258,3.33751 -4.51548,3.45416 -0.0357,0.0572 0.42045,0.61748 1.01374,1.24511 2.78995,2.95147 4.78293,5.1326 4.85914,5.31786 0.14864,0.36134 0.10611,0.99811 -0.0919,1.37686 -0.32074,0.61336 -1.46413,0.9169 -2.10506,0.55883 -0.27017,-0.15094 -2.22994,-2.25136 -4.66397,-4.99872 -0.7455,-0.84146 -1.38317,-1.5335 -1.41706,-1.53786 -0.0339,-0.004 -0.49135,0.3237 -1.01658,0.72903 l -0.95498,0.73698 v 2.07132 c 0,1.64187 -0.04,2.14784 -0.19301,2.44042 -0.3025,0.57846 -1.28272,0.87762 -1.96337,0.59922 z m 35.47358,-0.0767 c -0.21125,-0.10306 -0.44692,-0.32373 -0.5237,-0.49037 -0.0958,-0.2079 -0.1396,-1.68964 -0.1396,-4.72124 0,-4.98008 0.0297,-5.18131 0.97844,-6.63292 1.11174,-1.70096 2.56969,-2.59065 4.83849,-2.95257 1.96405,-0.31332 4.3235,0.42279 5.63076,1.7567 l 0.4193,0.42785 0.62809,-0.56137 c 0.87296,-0.78023 2.15671,-1.3581 3.52326,-1.58596 1.01385,-0.16905 1.22052,-0.1683 2.19265,0.008 2.75738,0.4998 4.83261,2.44154 5.39018,5.04345 0.26893,1.25502 0.25803,8.54591 -0.0136,9.11203 -0.50378,1.04986 -2.06131,1.01339 -2.71384,-0.0636 -0.0609,-0.10053 -0.13847,-2.12939 -0.17236,-4.50857 l -0.0616,-4.32578 -0.33415,-0.56209 c -0.98873,-1.66319 -3.0239,-2.34006 -4.75124,-1.58019 -0.79004,0.34754 -1.76693,1.36051 -1.9753,2.04824 -0.10103,0.33347 -0.15001,1.73669 -0.15476,4.43396 -0.005,2.72783 -0.0524,4.07423 -0.15403,4.36116 -0.41345,1.16686 -2.1773,1.30936 -2.75524,0.22259 -0.18458,-0.34708 -0.21049,-0.87973 -0.21773,-4.47604 -0.008,-3.99181 -0.0145,-4.09555 -0.29136,-4.69134 -0.56179,-1.20886 -1.74782,-2.05706 -3.09733,-2.21512 -1.31576,-0.1541 -2.94332,0.74829 -3.58274,1.98643 -0.30569,0.5919 -0.30714,0.61108 -0.36851,4.85911 -0.0669,4.63188 -0.0673,4.63444 -0.778,5.06297 -0.47048,0.28368 -0.99451,0.29914 -1.51603,0.0447 z"
       id="path24"
       sodipodi:nodetypes="cssssssssssccsssscsccccsccsssssscsscsccscccsscscscccscscssssscscsccscsccscsscscscssscsssccscsscscsscsssccscsscscsccsssccsccsscsss"
       transform="matrix(1.0247819,0,0,0.99999996,-115.44656,-79.175215)"
       sodipodi:insensitive="true" /><g
       id="g21"
       style="display:none"><path
         style="display:inline;fill:#f59e1e;stroke-width:1.01232"
         d="m 210.95876,67.209227 c -6.89115,-0.36927 -12.85632,-1.80353 -15.63272,-3.75872 -1.13344,-0.79819 -1.57287,-2.01086 -1.08683,-2.99924 0.71161,-1.44708 3.44603,-2.61924 6.93317,-2.97202 1.33185,-0.13474 1.43842,-0.12775 2.58865,0.16985 2.50048,0.64694 6.52109,1.16436 9.04763,1.16436 1.34186,0 1.53125,0.0308 2.66998,0.43405 2.70311,0.95726 5.21216,2.38451 6.11978,3.48119 0.75372,0.91074 0.72944,1.9296 -0.0643,2.6955 -1.02546,0.98955 -3.09138,1.58043 -6.26048,1.7906 -1.06467,0.0706 -2.05909,0.12032 -2.20983,0.11046 -0.15075,-0.01 -1.09802,-0.0621 -2.10508,-0.11603 z m -3.27356,-9.86924 c -4.14778,-0.6145 -7.087,-1.78266 -8.07506,-3.20935 -1.11726,-1.61324 0.35211,-3.44958 3.22419,-4.02946 1.43433,-0.28959 2.44949,-0.33868 3.90072,-0.18866 4.13248,0.42722 8.08078,1.96585 9.91981,3.86571 1.72365,1.78066 0.73734,3.25585 -2.46415,3.68554 -1.51759,0.20368 -4.70451,0.14305 -6.50551,-0.12378 z"
         id="path20"
         sodipodi:nodetypes="sssssscssscsscsscssc" /><path
         style="display:inline;fill:#f3f6fb;stroke-width:1.01232"
         d="m 181.19334,100.68597 c -3.69764,-0.863052 -6.18829,-4.114195 -5.96488,-7.786195 0.22962,-3.7737 3.01949,-6.67601 6.97674,-7.25789 2.49086,-0.36627 5.29913,0.66228 7.03543,2.57677 0.78321,0.86359 1.57256,2.34358 1.79839,3.37183 0.214,0.9745 0.26459,7.732065 0.0617,8.246923 -0.28185,0.715342 -1.4693,1.013802 -2.2368,0.562212 -0.36887,-0.21704 -0.66763,-0.80375 -0.67,-1.3158 -0.001,-0.23538 -0.1206,-0.18623 -0.6326,0.26014 -1.5229,1.32765 -4.10139,1.87105 -6.36802,1.34201 z m 4.02906,-3.07544 c 1.71396,-0.773955 2.82497,-2.322205 2.94331,-4.101645 0.0524,-0.78803 0.0116,-1.04618 -0.2937,-1.85879 -0.29974,-0.79775 -0.48293,-1.06787 -1.18471,-1.74686 -0.6269,-0.60654 -1.01564,-0.87056 -1.5878,-1.07836 -1.87717,-0.68176 -3.76159,-0.35318 -5.21722,0.90971 -1.11703,0.96913 -1.82429,2.87363 -1.56562,4.21584 0.28185,1.4625 1.19624,2.80444 2.35898,3.461985 1.34526,0.76076 3.1287,0.83847 4.54676,0.19812 z m 44.71783,3.0764 c -2.21917,-0.51815 -4.28314,-2.17824 -5.21251,-4.192485 -0.76336,-1.65446 -0.90515,-3.90592 -0.35232,-5.59463 1.04457,-3.19086 4.081,-5.29658 7.6356,-5.2952 3.45113,0.001 6.26035,1.86309 7.53985,4.99691 0.31202,0.76422 0.34181,0.98252 0.34688,2.54196 0.005,1.48063 -0.0345,1.82387 -0.29758,2.59883 -0.81374,2.397095 -2.9053,4.253383 -5.51941,4.898545 -1.15988,0.28626 -3.02304,0.30699 -4.14051,0.0461 z m 4.17765,-3.15994 c 1.07823,-0.509515 1.79506,-1.229685 2.36198,-2.372925 0.35454,-0.71495 0.39277,-0.90498 0.39277,-1.9523 0,-1.06406 -0.0342,-1.2273 -0.41264,-1.96899 -0.52526,-1.02948 -1.6241,-2.03926 -2.64518,-2.43079 -1.09559,-0.4201 -2.73846,-0.40204 -3.72651,0.041 -2.03556,0.91264 -3.10396,2.60589 -2.97611,4.71668 0.20734,3.42314 3.82365,5.471075 7.00569,3.967375 z M 249.21,100.6418 c -2.58626,-0.673622 -4.60643,-2.60985 -5.40782,-5.183105 -0.30877,-0.99148 -0.30816,-3.22775 0.001,-4.31709 0.84567,-2.97792 3.47804,-5.12692 6.76474,-5.52255 0.8864,-0.1067 1.25414,-0.0951 2.06184,0.0652 1.17723,0.23355 2.21794,0.67399 2.93805,1.24341 0.29111,0.23018 0.56499,0.38405 0.60864,0.34194 0.0436,-0.0421 0.0793,-1.46842 0.0793,-3.16957 0,-2.56929 0.0335,-3.15549 0.1978,-3.4621 0.21309,-0.39765 0.83957,-0.71575 1.40816,-0.71502 0.49996,6.5e-4 1.14829,0.42055 1.26343,0.81828 0.0539,0.18638 0.0981,3.40957 0.0981,7.16265 0,6.27532 -0.0186,6.88202 -0.23177,7.54852 -0.77431,2.421305 -2.60393,4.288623 -4.95495,5.057085 -1.24749,0.40775 -3.52927,0.47034 -4.82674,0.13239 z m 4.08394,-2.97648 c 0.37936,-0.1676 0.99231,-0.580845 1.3621,-0.918335 2.12082,-1.93552 2.06353,-5.1428 -0.12633,-7.07412 -0.93533,-0.82489 -1.83255,-1.14846 -3.20155,-1.1546 -0.96082,-0.004 -1.1642,0.0369 -1.89413,0.38404 -1.57508,0.749 -2.54746,2.08259 -2.81238,3.85712 -0.1169,0.78297 -0.10023,0.97447 0.15503,1.78552 0.58186,1.84856 1.68963,2.920935 3.4812,3.369975 0.90407,0.2266 2.19914,0.12013 3.03606,-0.2496 z m -93.32334,2.85588 c -0.13891,-0.0555 -0.39461,-0.24831 -0.56824,-0.42858 l -0.3157,-0.327782 v -9.415343 c 0,-7.82045 0.0298,-9.46915 0.17613,-9.73292 0.34517,-0.62236 1.42723,-0.87702 2.16411,-0.50931 0.75165,0.37508 0.75352,0.39032 0.75352,6.14547 0,2.88515 0.0426,5.24573 0.0947,5.24573 0.0522,0 1.29292,-0.91846 2.75735,-2.04104 3.7832,-2.90003 4.51373,-3.42661 4.96388,-3.57804 1.2626,-0.42473 2.42222,0.83166 1.84709,2.00122 -0.11777,0.23948 -0.36549,0.5308 -0.5505,0.64739 -0.52359,0.32996 -4.55267,3.33751 -4.62738,3.45416 -0.0366,0.0572 0.43087,0.61748 1.03886,1.24511 2.85909,2.95147 4.90146,5.132595 4.97956,5.317855 0.15233,0.36134 0.10874,0.99811 -0.0942,1.376858 -0.32869,0.613362 -1.50042,0.916902 -2.15723,0.558832 -0.27687,-0.15094 -2.2852,-2.25136 -4.77955,-4.998715 -0.76398,-0.84146 -1.41745,-1.5335 -1.45218,-1.53786 -0.0347,-0.004 -0.50353,0.3237 -1.04177,0.72903 l -0.97865,0.73698 v 2.071315 c 0,1.64187 -0.041,2.14784 -0.19779,2.440418 -0.31,0.578462 -1.31451,0.877622 -2.01203,0.599222 z m 36.35268,-0.0767 c -0.21648,-0.10306 -0.45799,-0.32373 -0.53668,-0.490372 -0.0982,-0.2079 -0.14306,-1.689638 -0.14306,-4.721233 0,-4.98008 0.0304,-5.18131 1.00269,-6.63292 1.13929,-1.70096 2.63337,-2.59065 4.9584,-2.95257 2.01272,-0.31332 4.43064,0.42279 5.7703,1.7567 l 0.42969,0.42785 0.64366,-0.56137 c 0.89459,-0.78023 2.21015,-1.3581 3.61057,-1.58596 1.03897,-0.16905 1.25077,-0.1683 2.24699,0.008 2.82571,0.4998 4.95237,2.44154 5.52376,5.04345 0.27559,1.25502 0.26442,8.545905 -0.0139,9.112023 -0.51627,1.049862 -2.11239,1.013392 -2.78109,-0.0636 -0.0624,-0.100528 -0.14191,-2.129388 -0.17664,-4.508563 l -0.0631,-4.32578 -0.34243,-0.56209 c -1.01324,-1.66319 -3.09884,-2.34006 -4.86899,-1.58019 -0.80962,0.34754 -1.81072,1.36051 -2.02425,2.04824 -0.10353,0.33347 -0.15373,1.73669 -0.1586,4.43396 -0.005,2.727825 -0.0537,4.074225 -0.15784,4.361155 -0.4237,1.16686 -2.23126,1.30936 -2.82352,0.222588 -0.18916,-0.347078 -0.21571,-0.879728 -0.22313,-4.476033 -0.008,-3.99181 -0.0149,-4.09555 -0.29858,-4.69134 -0.57571,-1.20886 -1.79113,-2.05706 -3.17409,-2.21512 -1.34836,-0.1541 -3.01626,0.74829 -3.67152,1.98643 -0.31327,0.5919 -0.31475,0.61108 -0.37765,4.85911 -0.0685,4.631873 -0.069,4.634433 -0.79728,5.062965 -0.48214,0.28368 -1.01915,0.29914 -1.5536,0.0447 z"
         id="path21"
         sodipodi:nodetypes="csssscsccccsccsssssscsscsccscccsscscscccscscssssscscsccscsccscsscscscssscsssccscsscscsscsssccscsscscsccsssccsccsscsss" /><path
         style="display:none;fill:#f3f6fb;stroke-width:1.01232"
         d="m 202.87711,77.204496 c -4.81296,-0.40233 -8.11199,-1.19596 -10.1072,-2.43144 -0.34274,-0.21223 -0.904,-0.68239 -1.24724,-1.0448 -0.76336,-0.805989 -1.00083,-1.613319 -0.77432,-2.632519 0.18191,-0.81852 0.48615,-1.27575 1.38058,-2.07483 1.32917,-1.18748 3.56959,-2.07769 6.05561,-2.40615 0.91817,-0.12131 1.09518,-0.10505 2.55541,0.23482 4.56184,1.06175 8.31402,1.48671 13.52519,1.53181 4.42353,0.0383 4.27787,0.0133 6.73256,1.1546 2.21397,1.02937 3.22004,2.00075 3.22004,3.10901 0,1.985059 -3.84138,3.634959 -10.22836,4.393149 -1.9963,0.23698 -9.01115,0.342 -11.11227,0.16635 z m 56.64314,-2.01419 c -3.69764,-0.86305 -6.18829,-4.114199 -5.96488,-7.786199 0.22961,-3.7737 3.01949,-6.67601 6.97673,-7.25789 2.49086,-0.36627 5.29913,0.66228 7.03543,2.57677 0.78321,0.86359 1.57257,2.34358 1.79839,3.37183 0.214,0.9745 0.2646,7.732069 0.0617,8.246929 -0.28184,0.71534 -1.4693,1.0138 -2.2368,0.56221 -0.36887,-0.21704 -0.66763,-0.80375 -0.66999,-1.3158 -10e-4,-0.23538 -0.12061,-0.18623 -0.63261,0.26014 -1.5229,1.32765 -4.10138,1.87105 -6.36802,1.34201 z m 4.02906,-3.075439 c 1.71396,-0.77396 2.82496,-2.32221 2.94331,-4.10165 0.0524,-0.78803 0.0116,-1.04618 -0.29371,-1.85879 -0.29974,-0.79775 -0.48293,-1.06787 -1.18471,-1.74686 -0.6269,-0.60654 -1.01564,-0.87056 -1.58779,-1.07836 -1.87718,-0.68176 -3.7616,-0.35318 -5.21723,0.90971 -1.11702,0.96913 -1.82429,2.87363 -1.56562,4.21584 0.28186,1.4625 1.19625,2.80444 2.35899,3.46199 1.34526,0.76076 3.1287,0.83847 4.54676,0.19812 z m 44.71782,3.076399 c -2.21916,-0.51815 -4.28314,-2.178239 -5.21251,-4.192489 -0.76336,-1.65446 -0.90515,-3.90592 -0.35232,-5.59463 1.04457,-3.19086 4.081,-5.29658 7.63561,-5.2952 3.45113,10e-4 6.26034,1.86309 7.53984,4.99691 0.31203,0.76422 0.34182,0.98252 0.34688,2.54196 0.005,1.48063 -0.0345,1.82387 -0.29758,2.59883 -0.81373,2.3971 -2.90529,4.253389 -5.51941,4.898549 -1.15988,0.28626 -3.02303,0.30699 -4.14051,0.0461 z m 4.17766,-3.159939 c 1.07822,-0.50952 1.79506,-1.22969 2.36198,-2.37293 0.35453,-0.71495 0.39277,-0.90498 0.39277,-1.9523 0,-1.06406 -0.0342,-1.2273 -0.41264,-1.96899 -0.52527,-1.02948 -1.62411,-2.03926 -2.64519,-2.43079 -1.09558,-0.4201 -2.73845,-0.40204 -3.72651,0.041 -2.03555,0.91264 -3.10396,2.60589 -2.97611,4.71668 0.20735,3.42314 3.82366,5.471079 7.0057,3.96738 z m 15.09212,3.114809 c -2.58627,-0.67362 -4.60644,-2.609849 -5.40783,-5.183109 -0.30877,-0.99148 -0.30815,-3.22775 0.001,-4.31709 0.84568,-2.97792 3.47804,-5.12692 6.76474,-5.52255 0.8864,-0.1067 1.25414,-0.0951 2.06184,0.0652 1.17723,0.23355 2.21794,0.67399 2.93805,1.24341 0.29111,0.23018 0.565,0.38405 0.60864,0.34194 0.0437,-0.0421 0.0793,-1.46842 0.0793,-3.16957 0,-2.56929 0.0335,-3.15549 0.1978,-3.4621 0.2131,-0.39765 0.83958,-0.71575 1.40817,-0.71502 0.49996,6.5e-4 1.14829,0.42055 1.26342,0.81828 0.0539,0.18638 0.0981,3.40957 0.0981,7.16265 0,6.27532 -0.0186,6.88202 -0.23176,7.54852 -0.77432,2.42131 -2.60393,4.288629 -4.95496,5.057089 -1.24748,0.40775 -3.52926,0.47034 -4.82674,0.13239 z m 4.08394,-2.976479 c 0.37935,-0.1676 0.9923,-0.58085 1.36209,-0.91834 2.12082,-1.93552 2.06354,-5.1428 -0.12633,-7.07412 -0.93533,-0.82489 -1.83255,-1.14846 -3.20154,-1.1546 -0.96083,-0.004 -1.16421,0.0369 -1.89414,0.38404 -1.57508,0.749 -2.54745,2.08259 -2.81238,3.85712 -0.11689,0.78297 -0.10022,0.97447 0.15503,1.78552 0.58186,1.84856 1.68963,2.92094 3.48121,3.36998 0.90407,0.2266 2.19914,0.12013 3.03606,-0.2496 z m -93.32335,2.855879 c -0.13891,-0.0555 -0.39461,-0.24831 -0.56824,-0.42858 l -0.31569,-0.32778 v -9.415349 c 0,-7.82045 0.0298,-9.46915 0.17613,-9.73292 0.34516,-0.62236 1.42722,-0.87702 2.1641,-0.50931 0.75166,0.37508 0.75352,0.39032 0.75352,6.14547 0,2.88515 0.0426,5.24573 0.0947,5.24573 0.0522,0 1.29292,-0.91846 2.75735,-2.04104 3.7832,-2.90003 4.51374,-3.42661 4.96388,-3.57804 1.26261,-0.42473 2.42223,0.83166 1.84709,2.00122 -0.11777,0.23948 -0.36549,0.5308 -0.55049,0.64739 -0.52359,0.32996 -4.55268,3.33751 -4.62738,3.45416 -0.0366,0.0572 0.43086,0.61748 1.03886,1.24511 2.85909,2.95147 4.90146,5.1326 4.97956,5.31786 0.15232,0.361339 0.10874,0.998109 -0.0942,1.376859 -0.32869,0.61336 -1.50041,0.9169 -2.15723,0.55883 -0.27686,-0.15094 -2.2852,-2.251359 -4.77955,-4.998719 -0.76398,-0.84146 -1.41745,-1.5335 -1.45218,-1.53786 -0.0347,-0.004 -0.50352,0.3237 -1.04177,0.72903 l -0.97865,0.73698 v 2.07132 c 0,1.641869 -0.041,2.147839 -0.19779,2.440419 -0.31,0.57846 -1.31451,0.87762 -2.01203,0.59922 z m 36.35269,-0.0767 c -0.21649,-0.10306 -0.458,-0.32373 -0.53668,-0.49037 -0.0982,-0.2079 -0.14306,-1.689639 -0.14306,-4.721239 0,-4.98008 0.0304,-5.18131 1.00269,-6.63292 1.13929,-1.70096 2.63337,-2.59065 4.95839,-2.95257 2.01273,-0.31332 4.43065,0.42279 5.7703,1.7567 l 0.4297,0.42785 0.64365,-0.56137 c 0.89459,-0.78023 2.21016,-1.3581 3.61057,-1.58596 1.03898,-0.16905 1.25077,-0.1683 2.24699,0.008 2.82571,0.4998 4.95237,2.44154 5.52376,5.04345 0.2756,1.25502 0.26443,8.545909 -0.0139,9.112029 -0.51626,1.04986 -2.11239,1.01339 -2.78109,-0.0636 -0.0624,-0.10053 -0.1419,-2.129389 -0.17663,-4.508569 l -0.0631,-4.32578 -0.34243,-0.56209 c -1.01323,-1.66319 -3.09884,-2.34006 -4.86898,-1.58019 -0.80962,0.34754 -1.81072,1.36051 -2.02426,2.04824 -0.10353,0.33347 -0.15372,1.73669 -0.15859,4.43396 -0.005,2.72783 -0.0537,4.074229 -0.15785,4.361159 -0.42369,1.16686 -2.23126,1.30936 -2.82352,0.22259 -0.18915,-0.34708 -0.2157,-0.87973 -0.22312,-4.476039 -0.008,-3.99181 -0.0149,-4.09555 -0.29858,-4.69134 -0.57572,-1.20886 -1.79114,-2.05706 -3.17409,-2.21512 -1.34837,-0.1541 -3.01626,0.74829 -3.67153,1.98643 -0.31326,0.5919 -0.31475,0.61108 -0.37764,4.85911 -0.0686,4.631879 -0.069,4.634439 -0.79728,5.062969 -0.48214,0.28368 -1.01916,0.29914 -1.5536,0.0447 z"
         id="path22"
         sodipodi:nodetypes="cssssssssssccsssscsccccsccsssssscsscsccscccsscscscccscscssssscscsccscsccscsscscscssscsssccscsscscsscsssccscsscscsccsssccsccsscsss"
         sodipodi:insensitive="true" /><path
         style="display:inline;fill:#f3f6fb;stroke-width:1.01232"
         d="m 202.87711,77.204496 c -4.81296,-0.40233 -8.11199,-1.19596 -10.1072,-2.43144 -0.34274,-0.21223 -0.904,-0.68239 -1.24724,-1.0448 -0.76336,-0.805989 -1.00083,-1.613319 -0.77432,-2.632519 0.18191,-0.81852 0.48615,-1.27575 1.38058,-2.07483 1.32917,-1.18748 3.56959,-2.07769 6.05561,-2.40615 0.91817,-0.12131 1.09518,-0.10505 2.55541,0.23482 4.56184,1.06175 8.31402,1.48671 13.52519,1.53181 4.42353,0.0383 4.27787,0.0133 6.73256,1.1546 2.21397,1.02937 3.22004,2.00075 3.22004,3.10901 0,1.985059 -3.84138,3.634959 -10.22836,4.393149 -1.9963,0.23698 -9.01115,0.342 -11.11227,0.16635 z"
         id="path23"
         sodipodi:nodetypes="cssssssssssc"
         sodipodi:insensitive="true" /></g></g></svg>
